<?xml version="1.0" encoding="utf-8"?>
<!-- Generator: Adobe Illustrator 27.4.0, SVG Export Plug-In . SVG Version: 6.00 Build 0)  -->
<svg version="1.1" xmlns="http://www.w3.org/2000/svg" xmlns:xlink="http://www.w3.org/1999/xlink" x="0px" y="0px"
	 viewBox="0 0 360 360" style="enable-background:new 0 0 360 360;" xml:space="preserve">
<style type="text/css">
	.st0{opacity:0.46;}
	.st1{fill:#000666;}
	.st2{fill:none;stroke:#000666;stroke-width:2;stroke-miterlimit:10;}
	.st3{fill:#F15A24;}
	.st4{opacity:0.9;fill:#F7931E;stroke:#F15A24;stroke-width:2;stroke-miterlimit:10;}
</style>
<g id="レイヤー_3">
	<g id="レイヤー_1">
		<g class="st0">
			<g>
				<path class="st1" d="M181,138.5l92.8,67.4l-35.4,109H123.7l-35.4-109L181,138.5 M180.7,136.2l-94.8,68.9l36.3,111.8h117.6
					l36.3-111.8l-94.7-68.8C181.1,136.3,180.9,136.3,180.7,136.2L180.7,136.2z"/>
			</g>
			<g>
				<path class="st1" d="M181,159.5l73.7,53.6l-28.2,86.7h-91.1L107.3,213L181,159.5 M181,157l-76.1,55.3l29.1,89.4h94l29.1-89.4
					L181,157L181,157z"/>
			</g>
			<g>
				<path class="st1" d="M180.5,180l54.7,39.8L214.3,284h-67.6l-20.9-64.3L180.5,180 M180.5,177.5L123.4,219l21.8,67.1h70.5
					l21.8-67.1L180.5,177.5L180.5,177.5z"/>
			</g>
			<g>
				<path class="st1" d="M181,201.5l35.7,25.9l-13.6,42h-44.1l-13.6-42L181,201.5 M181,199l-38,27.6l14.5,44.7h47l14.5-44.7L181,199
					L181,199z"/>
			</g>
			<g>
				<path class="st1" d="M181,218.5l19.5,14.2l-7.5,23h-24.1l-7.5-23L181,218.5 M181,216l-21.9,15.9l8.4,25.7h27l8.4-25.7L181,216
					L181,216z"/>
			</g>
			<g>
				<path class="st2" d="M180.5,136.8c0.5,34.2,0.5,69.2,0,103.7"/>
			</g>
			<line class="st2" x1="87.5" y1="205.5" x2="180.5" y2="240.5"/>
			<path class="st2" d="M275.6,205.8C244,217,212,228,180.5,240.5"/>
			<line class="st2" x1="122.5" y1="316.5" x2="180.5" y2="240.5"/>
			<line class="st2" x1="239.5" y1="316.5" x2="180.5" y2="240.5"/>
		</g>
	</g>
</g>
<g id="レイヤー_2">
	<g>
		<path d="M115.1,121.7c0,0.2,0,0.3,0,0.5c0,0.2,0,0.4,0,0.5c0,1.4-0.2,2.7-0.4,3.8c-0.2,1.1-0.5,2-0.9,2.8c-0.4,0.8-0.8,1.4-1.4,2
			c-0.5,0.6-1.1,1.1-1.8,1.5l-0.7-0.5c0.2-0.1,0.4-0.2,0.6-0.4c0.2-0.2,0.4-0.3,0.6-0.5c0.4-0.4,0.8-0.8,1.2-1.3
			c0.4-0.5,0.7-1.1,1-1.8c0.3-0.7,0.5-1.5,0.7-2.4c0.2-0.9,0.3-2,0.3-3.2c0-0.1,0-0.2,0-0.4c0-0.1,0-0.3,0-0.4c0-0.1,0-0.2,0-0.4
			H115.1z M120.1,124.6c0,0.1,0,0.2,0,0.3c0,0.1,0,0.2,0,0.3c0,0.2,0,0.6,0,1c0,0.4,0,0.9-0.1,1.5c0,0.5-0.1,1.1-0.2,1.6
			c-0.1,0.5-0.1,1-0.2,1.5c-0.1,0.5-0.2,0.8-0.3,1.1c-0.1,0.3-0.3,0.5-0.5,0.6c-0.2,0.1-0.5,0.2-0.8,0.2c-0.3,0-0.7,0-1.1,0
			c-0.4,0-0.8,0-1.1-0.1l-0.1-0.7c0.4,0,0.8,0.1,1.1,0.1c0.4,0,0.7,0,1,0c0.2,0,0.4,0,0.5-0.1s0.3-0.2,0.3-0.4
			c0.1-0.2,0.2-0.6,0.3-1c0.1-0.4,0.2-0.9,0.2-1.4c0.1-0.5,0.1-1,0.1-1.5c0-0.5,0.1-1,0.1-1.5c0-0.5,0-0.8,0-1.1h-7.7
			c-0.3,0-0.6,0-0.8,0c-0.2,0-0.5,0-0.7,0v-0.8c0.2,0,0.5,0,0.7,0c0.2,0,0.5,0,0.8,0h7.2c0.2,0,0.4,0,0.5,0c0.1,0,0.2,0,0.3,0
			L120.1,124.6z M118.9,121.6c0.1,0.2,0.2,0.4,0.4,0.6s0.3,0.5,0.4,0.7c0.1,0.2,0.3,0.4,0.4,0.6l-0.5,0.3c-0.1-0.3-0.3-0.6-0.5-1
			c-0.2-0.4-0.4-0.7-0.6-1L118.9,121.6z M120.4,121.1c0.1,0.2,0.3,0.4,0.4,0.6s0.3,0.5,0.4,0.7c0.1,0.2,0.3,0.4,0.4,0.6l-0.5,0.3
			c-0.1-0.3-0.3-0.6-0.5-1s-0.4-0.7-0.6-0.9L120.4,121.1z"/>
		<path d="M124.7,131.8c0.9-0.1,1.7-0.3,2.4-0.5c0.7-0.2,1.3-0.5,1.9-0.8c0.6-0.3,1.1-0.6,1.5-0.9c0.7-0.4,1.3-0.9,1.9-1.5
			c0.6-0.6,1.1-1.2,1.5-1.8c0.4-0.6,0.8-1.2,1-1.7l0.4,0.8c-0.3,0.5-0.7,1.1-1.1,1.7c-0.4,0.6-0.9,1.1-1.5,1.7
			c-0.6,0.5-1.2,1-1.9,1.5c-0.5,0.3-1,0.6-1.5,0.9c-0.6,0.3-1.2,0.6-1.9,0.8c-0.7,0.2-1.4,0.4-2.3,0.6L124.7,131.8z M125.6,122.4
			c0.3,0.2,0.5,0.4,0.9,0.6c0.3,0.2,0.7,0.5,1,0.8c0.3,0.3,0.7,0.5,1,0.8s0.5,0.5,0.7,0.7l-0.5,0.6c-0.2-0.2-0.4-0.4-0.7-0.7
			c-0.3-0.3-0.6-0.5-0.9-0.8c-0.3-0.3-0.7-0.5-1-0.8s-0.6-0.5-0.9-0.6L125.6,122.4z"/>
		<path d="M148.2,123.3c0,0.1-0.1,0.1-0.1,0.2s0,0.2-0.1,0.3c-0.1,0.4-0.2,0.8-0.3,1.3s-0.3,0.9-0.5,1.4c-0.2,0.5-0.4,0.9-0.6,1.4
			s-0.5,0.8-0.7,1.2c-0.4,0.5-0.9,1-1.4,1.5c-0.5,0.5-1.1,0.9-1.8,1.2c-0.7,0.4-1.4,0.7-2.3,1l-0.6-0.7c0.9-0.2,1.7-0.5,2.3-0.9
			c0.7-0.3,1.2-0.7,1.8-1.1s1-0.9,1.4-1.4c0.3-0.4,0.7-0.9,0.9-1.5c0.3-0.6,0.5-1.2,0.7-1.8c0.2-0.6,0.3-1.1,0.4-1.6
			c-0.1,0-0.4,0-0.8,0c-0.4,0-0.8,0-1.4,0c-0.5,0-1.1,0-1.7,0c-0.6,0-1.1,0-1.7,0s-1,0-1.3,0c-0.4,0-0.6,0-0.7,0c-0.2,0-0.5,0-0.7,0
			c-0.2,0-0.4,0-0.6,0V123c0.1,0,0.3,0,0.4,0c0.1,0,0.3,0,0.4,0s0.3,0,0.4,0c0.1,0,0.3,0,0.6,0c0.3,0,0.6,0,1.1,0s0.9,0,1.4,0
			s1,0,1.4,0s0.9,0,1.3,0s0.8,0,1,0s0.5,0,0.5,0c0.1,0,0.2,0,0.3,0s0.2,0,0.3,0L148.2,123.3z M147.3,122.5c0-0.3,0.1-0.5,0.2-0.8
			c0.1-0.2,0.3-0.4,0.5-0.5c0.2-0.1,0.5-0.2,0.8-0.2c0.3,0,0.5,0.1,0.8,0.2s0.4,0.3,0.5,0.5c0.1,0.2,0.2,0.5,0.2,0.8
			c0,0.3-0.1,0.5-0.2,0.8s-0.3,0.4-0.5,0.5s-0.5,0.2-0.8,0.2c-0.3,0-0.5-0.1-0.8-0.2c-0.2-0.1-0.4-0.3-0.5-0.5
			C147.3,123,147.3,122.8,147.3,122.5z M147.8,122.5c0,0.3,0.1,0.5,0.3,0.7c0.2,0.2,0.4,0.3,0.7,0.3c0.3,0,0.5-0.1,0.7-0.3
			c0.2-0.2,0.3-0.4,0.3-0.7c0-0.3-0.1-0.5-0.3-0.7c-0.2-0.2-0.4-0.3-0.7-0.3c-0.3,0-0.5,0.1-0.7,0.3
			C147.9,122,147.8,122.2,147.8,122.5z"/>
		<path d="M162.6,125.6c0,0-0.1,0.1-0.1,0.2c0,0.1-0.1,0.1-0.1,0.2c-0.2,0.7-0.4,1.4-0.7,2.1c-0.3,0.7-0.8,1.4-1.3,1.9
			c-0.7,0.8-1.5,1.4-2.4,1.9c-0.9,0.4-1.7,0.8-2.6,1l-0.6-0.6c1-0.2,1.9-0.5,2.7-1s1.6-1,2.2-1.7c0.5-0.5,0.8-1,1.1-1.7
			s0.5-1.2,0.7-1.8c-0.1,0-0.3,0-0.6,0s-0.7,0-1.1,0s-0.9,0-1.4,0c-0.5,0-1,0-1.5,0c-0.5,0-1,0-1.4,0s-0.8,0-1.1,0
			c-0.3,0-0.5,0-0.6,0c-0.2,0-0.3,0-0.6,0c-0.2,0-0.4,0-0.7,0v-0.8c0.2,0,0.5,0,0.7,0.1c0.2,0,0.4,0,0.6,0c0.1,0,0.3,0,0.6,0
			s0.7,0,1.1,0c0.4,0,0.9,0,1.4,0s1,0,1.5,0s1,0,1.4,0s0.8,0,1.1,0s0.5,0,0.6,0c0.1,0,0.2,0,0.4,0c0.1,0,0.2,0,0.3-0.1L162.6,125.6z
			 M153.8,122.2c0.2,0,0.4,0,0.5,0c0.2,0,0.4,0,0.6,0c0.1,0,0.4,0,0.7,0c0.4,0,0.8,0,1.3,0c0.5,0,1,0,1.4,0c0.5,0,0.9,0,1.3,0
			s0.7,0,0.8,0c0.2,0,0.4,0,0.6,0s0.4,0,0.5,0v0.8c-0.2,0-0.3,0-0.5,0s-0.4,0-0.6,0c-0.2,0-0.4,0-0.8,0s-0.8,0-1.3,0s-1,0-1.4,0
			c-0.5,0-0.9,0-1.3,0s-0.6,0-0.8,0c-0.2,0-0.4,0-0.6,0s-0.4,0-0.5,0V122.2z"/>
		<path d="M170.6,132.6c-0.6,0-1.2-0.1-1.7-0.3c-0.5-0.2-0.9-0.5-1.1-1c-0.3-0.4-0.4-0.9-0.4-1.5c0-0.5,0.1-0.9,0.4-1.3
			c0.2-0.4,0.5-0.7,0.9-1c0.4-0.3,0.8-0.6,1.2-0.8s0.8-0.5,1.2-0.8c0.4-0.3,0.7-0.5,0.9-0.9c0.2-0.3,0.4-0.7,0.4-1.1
			c0-0.4-0.1-0.7-0.3-0.9c-0.2-0.3-0.5-0.4-0.9-0.4c-0.5,0-0.9,0.2-1.1,0.5s-0.4,0.7-0.4,1.2c0,0.4,0.1,0.8,0.3,1.2
			c0.2,0.4,0.4,0.8,0.7,1.2c0.3,0.4,0.7,0.8,1,1.3c0.4,0.4,0.8,0.8,1.2,1.2c0.4,0.4,0.8,0.8,1.2,1.1c0.4,0.4,0.8,0.7,1.1,0.9
			c0.3,0.3,0.6,0.5,0.8,0.6l-0.4,0.7c-0.3-0.2-0.6-0.4-0.9-0.7s-0.8-0.6-1.2-1c-0.5-0.5-1.1-1-1.6-1.5c-0.6-0.5-1.1-1.1-1.5-1.7
			c-0.5-0.6-0.8-1.1-1.1-1.7c-0.3-0.6-0.4-1.1-0.4-1.6c0-0.5,0.1-0.9,0.3-1.3c0.2-0.4,0.5-0.6,0.8-0.8c0.3-0.2,0.7-0.3,1.2-0.3
			c0.6,0,1.1,0.2,1.4,0.6s0.5,0.8,0.5,1.4c0,0.5-0.1,0.9-0.4,1.3c-0.2,0.4-0.5,0.7-0.9,1c-0.4,0.3-0.8,0.6-1.2,0.8
			c-0.4,0.3-0.8,0.5-1.2,0.8c-0.4,0.3-0.7,0.6-0.9,0.9s-0.4,0.7-0.4,1.1c0,0.7,0.2,1.2,0.7,1.5s1.1,0.6,1.8,0.6c0.5,0,1-0.1,1.5-0.4
			c0.5-0.3,0.9-0.7,1.3-1.1c0.4-0.5,0.7-1,1-1.5c0.3-0.5,0.5-1.1,0.6-1.8h0.8c-0.1,0.7-0.4,1.4-0.7,2c-0.3,0.6-0.7,1.2-1.1,1.7
			c-0.4,0.5-0.9,1-1.5,1.3C172,132.4,171.3,132.6,170.6,132.6z"/>
		<path d="M180.4,125.1c0.2,0.1,0.4,0.2,0.7,0.4c0.3,0.2,0.6,0.4,0.9,0.5c0.3,0.2,0.6,0.4,0.8,0.5c0.3,0.2,0.5,0.3,0.6,0.4l-0.4,0.6
			c-0.2-0.1-0.4-0.3-0.6-0.4c-0.3-0.2-0.5-0.4-0.8-0.5c-0.3-0.2-0.6-0.4-0.8-0.5c-0.3-0.2-0.5-0.3-0.7-0.4L180.4,125.1z M180.7,132
			c0.5-0.1,1-0.2,1.6-0.4s1.1-0.3,1.6-0.6c0.5-0.2,1-0.5,1.5-0.7c0.8-0.4,1.5-0.9,2.1-1.5c0.6-0.5,1.2-1.1,1.8-1.7
			c0.5-0.6,1-1.2,1.4-1.9l0.4,0.7c-0.6,0.9-1.3,1.8-2.3,2.7c-0.9,0.9-1.9,1.6-3,2.3c-0.5,0.3-1,0.5-1.5,0.8
			c-0.5,0.2-1.1,0.4-1.6,0.6c-0.5,0.2-1,0.3-1.5,0.4L180.7,132z M182.5,122c0.2,0.1,0.4,0.3,0.7,0.4c0.3,0.2,0.6,0.4,0.9,0.6
			s0.6,0.4,0.8,0.6s0.4,0.3,0.6,0.4l-0.4,0.6c-0.1-0.1-0.3-0.3-0.6-0.4s-0.5-0.4-0.8-0.6c-0.3-0.2-0.6-0.4-0.8-0.6
			c-0.3-0.2-0.5-0.3-0.7-0.4L182.5,122z M188.4,122.1c0.1,0.1,0.3,0.4,0.4,0.6c0.2,0.3,0.3,0.5,0.5,0.8c0.2,0.3,0.3,0.5,0.4,0.8
			l-0.6,0.3c-0.1-0.2-0.2-0.5-0.4-0.7s-0.3-0.5-0.5-0.8c-0.2-0.3-0.3-0.5-0.5-0.7L188.4,122.1z M190.2,121.5
			c0.1,0.1,0.3,0.4,0.4,0.6c0.2,0.3,0.3,0.5,0.5,0.8s0.3,0.5,0.4,0.8l-0.6,0.3c-0.1-0.2-0.2-0.5-0.4-0.7c-0.2-0.3-0.3-0.5-0.5-0.8
			c-0.2-0.3-0.3-0.5-0.5-0.7L190.2,121.5z"/>
		<path d="M193.9,130.6c0.7-0.4,1.5-0.8,2.2-1.3c0.7-0.5,1.3-1,1.9-1.5s1.1-1.1,1.6-1.6c0.5-0.5,0.8-1,1.1-1.4h0.4l0,0.6
			c-0.3,0.4-0.6,0.9-1,1.4s-1,1-1.5,1.6c-0.6,0.5-1.2,1.1-1.9,1.5c-0.7,0.5-1.4,0.9-2.1,1.3L193.9,130.6z M194.3,124.1
			c0.2,0,0.4,0,0.6,0c0.2,0,0.4,0,0.6,0c0.1,0,0.3,0,0.6,0s0.7,0,1.2,0s1,0,1.6,0c0.6,0,1.1,0,1.7,0c0.6,0,1.1,0,1.6,0
			c0.5,0,0.9,0,1.2,0s0.6,0,0.7,0c0.2,0,0.3,0,0.6,0c0.2,0,0.4,0,0.5,0v0.8c-0.1,0-0.3,0-0.5,0c-0.2,0-0.4,0-0.5,0
			c-0.1,0-0.3,0-0.7,0c-0.3,0-0.7,0-1.2,0s-1,0-1.6,0c-0.6,0-1.1,0-1.7,0c-0.6,0-1.1,0-1.6,0s-0.9,0-1.2,0s-0.5,0-0.6,0
			c-0.2,0-0.4,0-0.6,0c-0.2,0-0.4,0-0.6,0V124.1z M201.5,121.6c0,0.2,0,0.3,0,0.5c0,0.2,0,0.3,0,0.5c0,0.2,0,0.5,0,0.9
			c0,0.4,0,0.9,0,1.4c0,0.5,0,1.1,0,1.7c0,0.6,0,1.2,0,1.8c0,0.6,0,1.2,0,1.8c0,0.6,0,1,0,1.5c0,0.3-0.1,0.6-0.3,0.7
			c-0.2,0.2-0.5,0.2-0.8,0.2c-0.3,0-0.7,0-1.1,0c-0.4,0-0.8,0-1.1-0.1l-0.1-0.8c0.3,0.1,0.7,0.1,1.1,0.1c0.4,0,0.7,0,1,0
			c0.2,0,0.4,0,0.4-0.1c0.1-0.1,0.1-0.2,0.1-0.4c0-0.3,0-0.8,0-1.3c0-0.5,0-1.1,0-1.7s0-1.2,0-1.8c0-0.6,0-1.2,0-1.7s0-1,0-1.4
			c0-0.4,0-0.7,0-0.9c0-0.3,0-0.5,0-0.6s0-0.3-0.1-0.4H201.5z"/>
		<path d="M218.6,125.6c0,0-0.1,0.1-0.1,0.2c0,0.1-0.1,0.1-0.1,0.2c-0.2,0.7-0.4,1.4-0.7,2.1c-0.3,0.7-0.8,1.4-1.3,1.9
			c-0.7,0.8-1.5,1.4-2.4,1.9c-0.9,0.4-1.7,0.8-2.6,1l-0.6-0.6c1-0.2,1.9-0.5,2.7-1s1.6-1,2.2-1.7c0.5-0.5,0.8-1,1.1-1.7
			s0.5-1.2,0.7-1.8c-0.1,0-0.3,0-0.6,0s-0.7,0-1.1,0s-0.9,0-1.4,0c-0.5,0-1,0-1.5,0c-0.5,0-1,0-1.4,0s-0.8,0-1.1,0
			c-0.3,0-0.5,0-0.6,0c-0.2,0-0.3,0-0.6,0c-0.2,0-0.4,0-0.7,0v-0.8c0.2,0,0.5,0,0.7,0.1c0.2,0,0.4,0,0.6,0c0.1,0,0.3,0,0.6,0
			s0.7,0,1.1,0c0.4,0,0.9,0,1.4,0s1,0,1.5,0s1,0,1.4,0s0.8,0,1.1,0s0.5,0,0.6,0c0.1,0,0.2,0,0.4,0c0.1,0,0.2,0,0.3-0.1L218.6,125.6z
			 M209.8,122.2c0.2,0,0.4,0,0.5,0c0.2,0,0.4,0,0.6,0c0.1,0,0.4,0,0.7,0c0.4,0,0.8,0,1.3,0c0.5,0,1,0,1.4,0c0.5,0,0.9,0,1.3,0
			s0.7,0,0.8,0c0.2,0,0.4,0,0.6,0s0.4,0,0.5,0v0.8c-0.2,0-0.3,0-0.5,0s-0.4,0-0.6,0c-0.2,0-0.4,0-0.8,0s-0.8,0-1.3,0s-1,0-1.4,0
			c-0.5,0-0.9,0-1.3,0s-0.6,0-0.8,0c-0.2,0-0.4,0-0.6,0s-0.4,0-0.5,0V122.2z"/>
		<path d="M233.3,123.5c-0.1,0-0.1,0.1-0.2,0.2c0,0.1-0.1,0.1-0.1,0.2c-0.3,0.4-0.6,0.9-0.9,1.4c-0.4,0.5-0.8,1-1.2,1.5
			c-0.5,0.5-1,1.1-1.5,1.6s-1.2,1-1.8,1.5l-0.6-0.5c0.6-0.4,1.2-0.9,1.8-1.4s1-1,1.5-1.5s0.8-1,1.2-1.4c0.3-0.5,0.6-0.9,0.8-1.2
			c-0.2,0-0.5,0-0.8,0s-0.8,0-1.3,0c-0.5,0-1,0-1.6,0c-0.6,0-1.1,0-1.7,0s-1.1,0-1.5,0s-0.9,0-1.2,0c-0.3,0-0.5,0-0.6,0
			c-0.2,0-0.4,0-0.5,0s-0.3,0-0.5,0c-0.1,0-0.2,0-0.3,0V123c0.1,0,0.3,0,0.4,0s0.3,0,0.4,0c0.2,0,0.3,0,0.5,0c0.1,0,0.3,0,0.6,0
			s0.7,0,1.2,0s1,0,1.5,0c0.5,0,1.1,0,1.6,0c0.6,0,1.1,0,1.6,0s0.9,0,1.3,0c0.4,0,0.7,0,0.9,0c0.3,0,0.5,0,0.7-0.1L233.3,123.5z
			 M227.2,130.1c-0.2-0.2-0.5-0.5-0.8-0.7s-0.6-0.5-0.9-0.8c-0.3-0.3-0.6-0.5-0.9-0.7c-0.3-0.2-0.5-0.4-0.7-0.5l0.6-0.5
			c0.1,0.1,0.3,0.3,0.6,0.5c0.3,0.2,0.6,0.5,0.9,0.7c0.3,0.3,0.6,0.5,1,0.8c0.3,0.3,0.6,0.5,0.8,0.8c0.3,0.3,0.6,0.6,0.9,0.9
			c0.3,0.3,0.6,0.7,0.9,1c0.3,0.3,0.5,0.6,0.7,0.8l-0.6,0.5c-0.2-0.2-0.4-0.5-0.7-0.8s-0.6-0.6-0.9-1
			C227.8,130.7,227.5,130.4,227.2,130.1z"/>
		<path d="M238.8,120.8l0.6,0.2c-0.3,0.8-0.7,1.6-1.1,2.3s-0.8,1.5-1.3,2.1c-0.5,0.7-1,1.3-1.5,1.8c0,0-0.1-0.1-0.1-0.2
			c-0.1-0.1-0.1-0.2-0.2-0.3c-0.1-0.1-0.1-0.1-0.2-0.2c0.5-0.5,1-1,1.4-1.6c0.4-0.6,0.9-1.3,1.2-2
			C238.1,122.2,238.5,121.5,238.8,120.8z M237.2,124.2l0.7-0.7l0,0v9.8h-0.7V124.2z M241.9,120.9l0.7,0.2c-0.3,0.7-0.6,1.4-0.9,2.1
			c-0.4,0.7-0.7,1.4-1.1,2c-0.4,0.6-0.8,1.2-1.2,1.6c0,0-0.1-0.1-0.2-0.1c-0.1-0.1-0.1-0.1-0.2-0.2c-0.1-0.1-0.1-0.1-0.2-0.1
			c0.4-0.4,0.9-1,1.2-1.5c0.4-0.6,0.7-1.2,1.1-1.9C241.4,122.3,241.7,121.6,241.9,120.9z M241.3,123.1h6.6v0.7h-6.9L241.3,123.1z
			 M242.6,123.3h0.7v10.1h-0.7V123.3z M243,126.1h4.6v0.6H243V126.1z M243,129.2h4.8v0.7H243V129.2z"/>
		<path d="M253,121.5c-0.1,0.3-0.2,0.7-0.2,1.1c-0.1,0.4-0.1,0.8-0.2,1.2c-0.1,0.4-0.1,0.8-0.2,1.2c0,0.4-0.1,0.7-0.1,1
			c0.1-0.4,0.3-0.8,0.6-1.3c0.3-0.4,0.6-0.8,0.9-1.2c0.4-0.4,0.7-0.7,1.2-0.9c0.4-0.2,0.9-0.4,1.4-0.4c0.6,0,1.1,0.2,1.6,0.6
			c0.5,0.4,0.8,0.9,1.1,1.6c0.3,0.7,0.4,1.5,0.4,2.5c0,1-0.1,1.8-0.4,2.5c-0.3,0.7-0.7,1.3-1.2,1.8s-1.1,0.9-1.8,1.2
			s-1.5,0.5-2.3,0.7l-0.4-0.6c0.8-0.1,1.5-0.3,2.1-0.5c0.7-0.2,1.2-0.6,1.8-1s0.9-0.9,1.2-1.6c0.3-0.6,0.4-1.4,0.4-2.3
			c0-0.7-0.1-1.4-0.3-2c-0.2-0.6-0.4-1.1-0.8-1.5s-0.8-0.6-1.4-0.6c-0.4,0-0.9,0.1-1.3,0.4c-0.4,0.3-0.8,0.7-1.2,1.1
			c-0.4,0.4-0.6,0.9-0.9,1.4c-0.2,0.5-0.4,1-0.4,1.5c0,0.3-0.1,0.6-0.1,0.9s0,0.6,0.1,1l-0.7,0.1c0-0.3-0.1-0.6-0.1-0.9
			c0-0.4,0-0.8,0-1.2c0-0.3,0-0.7,0.1-1.1s0.1-0.8,0.1-1.3c0-0.4,0.1-0.8,0.1-1.2c0.1-0.4,0.1-0.7,0.1-0.9c0-0.2,0-0.4,0.1-0.5
			c0-0.2,0-0.3,0-0.5L253,121.5z"/>
	</g>
	<g>
		<path d="M231.5,322.8h0.4v0.2h0.2v0.2c-0.2,0.4-0.4,0.8-0.7,1.2c-0.3,0.4-0.6,0.9-1,1.4c-0.4,0.5-0.8,0.9-1.3,1.3
			c0,0-0.1-0.1-0.1-0.1c-0.1-0.1-0.1-0.1-0.2-0.1c-0.1,0-0.1-0.1-0.2-0.1c0.5-0.4,0.9-0.8,1.3-1.2s0.7-0.9,1-1.3
			S231.3,323.2,231.5,322.8z M228.8,334.4c0.5-0.1,1.1-0.2,1.7-0.3c0.7-0.1,1.4-0.3,2.1-0.4c0.7-0.1,1.5-0.3,2.2-0.4l0.1,0.6
			c-0.7,0.1-1.4,0.3-2.1,0.4c-0.7,0.1-1.4,0.3-2,0.4c-0.7,0.1-1.2,0.2-1.8,0.3L228.8,334.4z M228.9,328.7h5.6v0.6h-5.6V328.7z
			 M229.4,330.4l0.5-0.1c0.2,0.4,0.3,0.9,0.4,1.4c0.1,0.5,0.2,0.9,0.2,1.3l-0.6,0.1c0-0.4-0.1-0.8-0.2-1.3
			C229.7,331.3,229.5,330.8,229.4,330.4z M229.7,326.3h4.3v0.6h-4.3V326.3z M231.5,326.6h0.6v7.4l-0.6,0.1V326.6z M231.6,322.8h0.5
			c0.3,0.3,0.6,0.6,1,0.9c0.3,0.3,0.7,0.7,0.9,1c0.3,0.3,0.5,0.6,0.7,0.9l-0.5,0.5c-0.2-0.3-0.4-0.5-0.7-0.9c-0.3-0.3-0.6-0.7-0.9-1
			c-0.3-0.3-0.6-0.6-0.9-0.9h-0.1V322.8z M233.7,330.1l0.6,0.2c-0.1,0.4-0.3,0.9-0.4,1.4c-0.2,0.5-0.3,0.9-0.5,1.2l-0.5-0.2
			c0.1-0.2,0.2-0.5,0.3-0.8c0.1-0.3,0.2-0.6,0.3-0.9S233.7,330.4,233.7,330.1z M236.6,322.8l0.7,0.1c-0.3,1.1-0.6,2-1,3
			s-0.9,1.7-1.4,2.4c0,0-0.1-0.1-0.2-0.1c-0.1,0-0.2-0.1-0.2-0.2c-0.1-0.1-0.1-0.1-0.2-0.1c0.6-0.6,1-1.4,1.4-2.2
			C236.1,324.7,236.4,323.8,236.6,322.8z M235.9,328.6l0.5-0.3c0.3,0.3,0.5,0.7,0.8,1.1c0.3,0.4,0.5,0.8,0.7,1.2
			c0.2,0.4,0.3,0.7,0.4,1.1l-0.6,0.3c-0.1-0.3-0.2-0.7-0.4-1.1c-0.2-0.4-0.4-0.8-0.6-1.2C236.5,329.3,236.2,329,235.9,328.6z
			 M236.3,325.3h4.6v0.6H236L236.3,325.3z M240.7,325.3h0.7c0,0.1,0,0.2,0,0.3s0,0.1,0,0.1c-0.1,1.6-0.1,3-0.2,4.1s-0.2,2-0.2,2.7
			c-0.1,0.7-0.2,1.3-0.3,1.7s-0.2,0.7-0.4,0.8c-0.1,0.2-0.3,0.3-0.4,0.4s-0.4,0.1-0.6,0.1c-0.2,0-0.5,0-0.9,0c-0.4,0-0.8,0-1.2-0.1
			c0-0.1,0-0.2-0.1-0.4c0-0.1-0.1-0.2-0.1-0.3c0.4,0,0.9,0.1,1.3,0.1c0.4,0,0.7,0,0.8,0c0.1,0,0.3,0,0.4,0c0.1,0,0.2-0.1,0.2-0.2
			c0.1-0.1,0.3-0.4,0.4-0.8c0.1-0.4,0.2-0.9,0.3-1.6c0.1-0.7,0.2-1.6,0.2-2.7c0.1-1.1,0.1-2.4,0.2-4V325.3z"/>
		<path d="M246.7,323.6c-0.1,0.3-0.2,0.7-0.2,1.1c-0.1,0.4-0.1,0.8-0.2,1.2s-0.1,0.8-0.2,1.2s-0.1,0.7-0.1,1
			c0.1-0.4,0.3-0.8,0.6-1.3c0.3-0.4,0.6-0.8,0.9-1.2s0.7-0.7,1.2-0.9c0.4-0.2,0.9-0.4,1.4-0.4c0.6,0,1.1,0.2,1.6,0.6
			c0.5,0.4,0.8,0.9,1.1,1.6c0.3,0.7,0.4,1.5,0.4,2.5c0,1-0.1,1.8-0.4,2.5s-0.7,1.3-1.2,1.8c-0.5,0.5-1.1,0.9-1.8,1.2
			s-1.5,0.5-2.3,0.7l-0.4-0.6c0.8-0.1,1.5-0.3,2.1-0.5c0.7-0.2,1.2-0.6,1.8-1c0.5-0.4,0.9-0.9,1.2-1.6s0.4-1.4,0.4-2.3
			c0-0.7-0.1-1.4-0.3-2c-0.2-0.6-0.4-1.1-0.8-1.5c-0.4-0.4-0.8-0.6-1.4-0.6c-0.4,0-0.9,0.1-1.3,0.4c-0.4,0.3-0.8,0.7-1.2,1.1
			s-0.6,0.9-0.9,1.4c-0.2,0.5-0.4,1-0.4,1.5c0,0.3-0.1,0.6-0.1,0.9c0,0.3,0,0.6,0.1,1l-0.7,0.1c0-0.3-0.1-0.6-0.1-0.9
			c0-0.4,0-0.8,0-1.2c0-0.3,0-0.7,0.1-1.1c0-0.4,0.1-0.8,0.1-1.3c0-0.4,0.1-0.8,0.1-1.2c0.1-0.4,0.1-0.7,0.1-0.9
			c0-0.2,0-0.4,0.1-0.5c0-0.2,0-0.3,0-0.5L246.7,323.6z"/>
		<path d="M231.1,344.2c0-0.9,0.1-1.7,0.3-2.5c0.2-0.8,0.5-1.5,1-2.2s0.9-1.3,1.5-2l0.5,0.3c-0.6,0.6-1.1,1.2-1.5,1.9
			c-0.4,0.7-0.7,1.4-0.9,2.1s-0.3,1.5-0.3,2.3c0,0.8,0.1,1.6,0.3,2.3c0.2,0.7,0.5,1.4,0.9,2.1c0.4,0.7,0.9,1.3,1.5,1.9l-0.5,0.3
			c-0.6-0.6-1.1-1.3-1.5-2s-0.7-1.4-1-2.2S231.1,345.1,231.1,344.2z"/>
		<path d="M238.4,345.4c0.1-0.4,0.3-0.7,0.4-1.2c0.1-0.4,0.3-0.9,0.4-1.3s0.2-0.9,0.3-1.4s0.2-0.9,0.2-1.2l0.8,0.2
			c0,0.1,0,0.2-0.1,0.3s0,0.2-0.1,0.3c0,0.1,0,0.2-0.1,0.3c0,0.2-0.1,0.5-0.2,0.8c-0.1,0.3-0.2,0.7-0.3,1.2
			c-0.1,0.4-0.2,0.8-0.4,1.3c-0.1,0.4-0.3,0.8-0.4,1.2c-0.2,0.4-0.4,0.8-0.6,1.3s-0.5,0.9-0.7,1.3s-0.5,0.8-0.8,1.2l-0.7-0.3
			c0.4-0.6,0.9-1.2,1.2-1.9C237.8,346.6,238.1,345.9,238.4,345.4z M245.3,344.7c-0.2-0.4-0.3-0.7-0.5-1.1c-0.2-0.4-0.3-0.8-0.5-1.2
			c-0.2-0.4-0.4-0.8-0.5-1.1c-0.2-0.4-0.3-0.7-0.5-0.9l0.7-0.3c0.1,0.2,0.3,0.5,0.5,0.9c0.2,0.3,0.3,0.7,0.5,1.1
			c0.2,0.4,0.4,0.8,0.5,1.2c0.2,0.4,0.3,0.8,0.5,1.2c0.1,0.4,0.3,0.8,0.5,1.2c0.2,0.4,0.3,0.9,0.5,1.3c0.2,0.4,0.3,0.8,0.4,1.2
			c0.1,0.4,0.2,0.7,0.3,1l-0.8,0.2c-0.1-0.4-0.2-0.9-0.4-1.5s-0.4-1.1-0.6-1.7C245.7,345.7,245.5,345.2,245.3,344.7z M245.7,338.7
			c0.1,0.2,0.3,0.4,0.4,0.6c0.1,0.2,0.3,0.5,0.4,0.7s0.3,0.4,0.4,0.6l-0.5,0.3c-0.1-0.3-0.3-0.6-0.5-1c-0.2-0.4-0.4-0.7-0.6-1
			L245.7,338.7z M247.2,338.2c0.1,0.2,0.3,0.4,0.4,0.6c0.1,0.2,0.3,0.5,0.4,0.7c0.1,0.2,0.3,0.4,0.4,0.6l-0.5,0.3
			c-0.2-0.3-0.3-0.7-0.6-1c-0.2-0.4-0.4-0.7-0.6-0.9L247.2,338.2z"/>
		<path d="M260.1,340.2c0,0-0.1,0.1-0.1,0.2s-0.1,0.2-0.1,0.2c-0.2,0.5-0.4,1-0.7,1.5c-0.3,0.6-0.6,1.1-1,1.7
			c-0.4,0.5-0.7,1-1.1,1.4c-0.5,0.6-1.1,1.1-1.7,1.7c-0.6,0.5-1.2,1-1.9,1.5c-0.7,0.5-1.4,0.9-2.1,1.2l-0.6-0.6
			c0.8-0.3,1.5-0.7,2.2-1.1c0.7-0.4,1.3-0.9,2-1.5c0.6-0.5,1.2-1.1,1.7-1.6c0.3-0.4,0.7-0.8,1-1.3s0.6-1,0.9-1.5
			c0.3-0.5,0.5-1,0.6-1.4c-0.1,0-0.2,0-0.5,0c-0.3,0-0.7,0-1.1,0c-0.4,0-0.9,0-1.3,0s-0.9,0-1.3,0s-0.8,0-1.1,0s-0.5,0-0.5,0
			c-0.1,0-0.3,0-0.5,0c-0.2,0-0.4,0-0.5,0c-0.1,0-0.2,0-0.3,0v-0.8c0,0,0.1,0,0.3,0c0.1,0,0.3,0,0.5,0c0.2,0,0.4,0,0.5,0
			c0.1,0,0.3,0,0.5,0c0.3,0,0.6,0,1,0c0.4,0,0.8,0,1.3,0s0.9,0,1.3,0c0.4,0,0.8,0,1,0c0.3,0,0.5,0,0.5,0c0.2,0,0.3,0,0.5,0
			c0.1,0,0.2,0,0.3-0.1L260.1,340.2z M257.2,344.8c0.4,0.3,0.8,0.7,1.2,1.1c0.4,0.4,0.8,0.8,1.2,1.2c0.4,0.4,0.7,0.8,1.1,1.1
			s0.6,0.7,0.9,1l-0.6,0.5c-0.3-0.4-0.7-0.9-1.2-1.4c-0.5-0.5-1-1-1.5-1.6s-1-1-1.6-1.4L257.2,344.8z"/>
		<path d="M275,340.2c0,0.1-0.1,0.1-0.1,0.2c0,0.1,0,0.2-0.1,0.3c-0.1,0.4-0.2,0.8-0.3,1.3c-0.1,0.5-0.3,0.9-0.4,1.4
			c-0.2,0.5-0.4,0.9-0.6,1.4c-0.2,0.4-0.5,0.8-0.7,1.2c-0.4,0.5-0.9,1-1.4,1.5c-0.5,0.5-1.1,0.9-1.7,1.2s-1.4,0.7-2.3,1l-0.6-0.7
			c0.9-0.2,1.7-0.5,2.3-0.9s1.2-0.7,1.8-1.1c0.5-0.4,1-0.9,1.4-1.4c0.3-0.4,0.6-0.9,0.9-1.5c0.3-0.6,0.5-1.2,0.7-1.8
			s0.3-1.1,0.4-1.6c-0.1,0-0.4,0-0.8,0c-0.4,0-0.8,0-1.4,0s-1.1,0-1.7,0s-1.1,0-1.7,0s-1,0-1.3,0s-0.6,0-0.7,0c-0.3,0-0.5,0-0.7,0
			c-0.2,0-0.4,0-0.6,0v-0.8c0.1,0,0.2,0,0.4,0c0.1,0,0.3,0,0.4,0c0.1,0,0.3,0,0.4,0c0.1,0,0.3,0,0.6,0c0.3,0,0.7,0,1.1,0
			c0.4,0,0.9,0,1.4,0s1,0,1.4,0c0.5,0,0.9,0,1.3,0s0.8,0,1,0s0.5,0,0.5,0c0.1,0,0.2,0,0.3,0c0.1,0,0.2,0,0.3,0L275,340.2z"/>
		<path d="M279,346.1c0.6-0.2,1.2-0.4,1.9-0.6s1.2-0.5,1.8-0.8c0.6-0.3,1-0.5,1.4-0.8c0.4-0.3,0.8-0.6,1.3-0.9
			c0.4-0.3,0.8-0.6,1.1-1c0.3-0.3,0.6-0.6,0.9-0.9l0.6,0.5c-0.3,0.3-0.6,0.6-0.9,0.9s-0.8,0.7-1.2,1s-0.9,0.6-1.4,0.9
			c-0.3,0.2-0.6,0.3-1,0.5c-0.4,0.2-0.8,0.4-1.2,0.6c-0.4,0.2-0.9,0.4-1.4,0.6s-1,0.4-1.5,0.5L279,346.1z M284,344.3l0.7-0.2v5.4
			c0,0.1,0,0.3,0,0.4c0,0.1,0,0.3,0,0.4c0,0.1,0,0.2,0,0.3h-0.8c0-0.1,0-0.1,0-0.3c0-0.1,0-0.2,0-0.4c0-0.1,0-0.3,0-0.4V344.3z"/>
		<path d="M294.6,342.3c0.1,0.1,0.2,0.3,0.3,0.6s0.2,0.6,0.4,0.9c0.1,0.3,0.3,0.6,0.4,0.9c0.1,0.3,0.2,0.5,0.3,0.7l-0.7,0.3
			c-0.1-0.2-0.1-0.4-0.3-0.7c-0.1-0.3-0.2-0.6-0.4-1s-0.3-0.6-0.4-0.9c-0.1-0.3-0.2-0.5-0.3-0.6L294.6,342.3z M302.8,342.2
			c0,0.1-0.1,0.2-0.1,0.3s0,0.2-0.1,0.2c-0.2,0.8-0.4,1.6-0.8,2.3c-0.3,0.8-0.7,1.4-1.3,2.1c-0.6,0.8-1.4,1.5-2.2,2
			s-1.6,0.9-2.3,1.2l-0.6-0.6c0.6-0.2,1.1-0.4,1.7-0.7c0.5-0.3,1.1-0.6,1.5-1c0.5-0.4,0.9-0.8,1.3-1.3c0.3-0.4,0.6-0.9,0.9-1.4
			c0.3-0.5,0.5-1.1,0.7-1.6c0.2-0.6,0.3-1.2,0.4-1.8L302.8,342.2z M297.8,341.6c0.1,0.1,0.1,0.3,0.2,0.6c0.1,0.3,0.2,0.6,0.3,0.9
			c0.1,0.3,0.2,0.6,0.3,0.9c0.1,0.3,0.2,0.5,0.2,0.6l-0.7,0.3c0-0.1-0.1-0.4-0.2-0.6c-0.1-0.3-0.2-0.6-0.3-0.9
			c-0.1-0.3-0.2-0.6-0.3-0.9c-0.1-0.3-0.2-0.5-0.3-0.6L297.8,341.6z"/>
		<path d="M307.3,342.1c0.2,0.1,0.4,0.2,0.7,0.4s0.6,0.4,0.9,0.5c0.3,0.2,0.6,0.4,0.8,0.5c0.3,0.2,0.4,0.3,0.6,0.4l-0.4,0.6
			c-0.2-0.1-0.4-0.3-0.6-0.4c-0.3-0.2-0.5-0.3-0.8-0.5c-0.3-0.2-0.6-0.4-0.8-0.5c-0.3-0.2-0.5-0.3-0.7-0.4L307.3,342.1z M307.6,349
			c0.5-0.1,1-0.2,1.6-0.4c0.5-0.2,1.1-0.3,1.6-0.6s1-0.5,1.5-0.7c0.8-0.4,1.5-0.9,2.1-1.5c0.6-0.5,1.2-1.1,1.7-1.7
			c0.5-0.6,1-1.2,1.4-1.9l0.4,0.7c-0.6,0.9-1.3,1.8-2.3,2.7c-0.9,0.9-1.9,1.6-3,2.3c-0.5,0.3-1,0.5-1.5,0.8
			c-0.5,0.2-1.1,0.4-1.6,0.6c-0.5,0.2-1,0.3-1.5,0.4L307.6,349z M309.4,338.9c0.2,0.1,0.4,0.3,0.7,0.4c0.3,0.2,0.6,0.4,0.9,0.6
			c0.3,0.2,0.6,0.4,0.8,0.6c0.3,0.2,0.4,0.3,0.6,0.4l-0.4,0.6c-0.1-0.1-0.3-0.3-0.6-0.4c-0.2-0.2-0.5-0.4-0.8-0.6s-0.6-0.4-0.8-0.6
			c-0.3-0.2-0.5-0.3-0.7-0.4L309.4,338.9z"/>
		<path d="M321.5,348.9c0.9-0.1,1.7-0.3,2.4-0.5s1.3-0.5,1.9-0.8c0.6-0.3,1.1-0.6,1.5-0.9c0.7-0.4,1.3-0.9,1.9-1.5
			c0.6-0.6,1.1-1.2,1.5-1.8c0.4-0.6,0.8-1.2,1-1.7l0.4,0.8c-0.3,0.5-0.7,1.1-1.1,1.7c-0.4,0.6-0.9,1.1-1.5,1.7s-1.2,1-1.9,1.5
			c-0.5,0.3-1,0.6-1.5,0.9c-0.6,0.3-1.2,0.6-1.9,0.8c-0.7,0.2-1.4,0.4-2.3,0.6L321.5,348.9z M322.3,339.5c0.3,0.2,0.5,0.4,0.9,0.6
			c0.3,0.2,0.7,0.5,1,0.8c0.3,0.3,0.7,0.5,1,0.8s0.5,0.5,0.7,0.7l-0.5,0.6c-0.2-0.2-0.4-0.4-0.7-0.7c-0.3-0.3-0.6-0.5-0.9-0.8
			s-0.7-0.5-1-0.8c-0.3-0.3-0.6-0.5-0.9-0.6L322.3,339.5z"/>
		<path d="M339.9,339c-0.1,0.1-0.2,0.3-0.3,0.5c-0.1,0.2-0.2,0.3-0.2,0.4c-0.3,0.5-0.6,1-1,1.6c-0.4,0.6-0.9,1.2-1.5,1.8
			s-1.3,1.1-2.1,1.7l-0.6-0.5c0.6-0.4,1.1-0.7,1.6-1.2s0.9-0.9,1.3-1.3c0.4-0.4,0.7-0.9,0.9-1.3c0.3-0.4,0.5-0.8,0.6-1.1
			c0.1-0.1,0.1-0.2,0.2-0.4c0.1-0.2,0.1-0.3,0.1-0.5L339.9,339z M344.6,341.1c0,0.1-0.1,0.2-0.1,0.3s-0.1,0.2-0.1,0.3
			c-0.1,0.5-0.3,1-0.5,1.6c-0.2,0.6-0.5,1.1-0.8,1.7c-0.3,0.6-0.7,1.1-1.1,1.6c-0.6,0.8-1.4,1.4-2.3,2.1s-2,1.2-3.3,1.6l-0.6-0.6
			c0.8-0.2,1.5-0.5,2.2-0.9s1.3-0.8,1.9-1.2c0.6-0.4,1.1-0.9,1.5-1.5c0.4-0.5,0.7-1,1.1-1.5c0.3-0.5,0.6-1.1,0.8-1.6
			s0.4-1.1,0.5-1.5h-5.5l0.3-0.7c0.1,0,0.3,0,0.7,0s0.7,0,1.1,0s0.9,0,1.3,0c0.4,0,0.8,0,1.1,0c0.3,0,0.5,0,0.6,0c0.2,0,0.3,0,0.4,0
			s0.2,0,0.3-0.1L344.6,341.1z M343.9,338.5c0.1,0.2,0.3,0.4,0.4,0.6c0.1,0.2,0.3,0.5,0.4,0.7c0.1,0.2,0.3,0.4,0.4,0.6l-0.5,0.3
			c-0.1-0.3-0.3-0.6-0.5-1c-0.2-0.4-0.4-0.7-0.6-1L343.9,338.5z M345.4,337.9c0.1,0.2,0.3,0.4,0.4,0.6c0.1,0.2,0.3,0.5,0.4,0.7
			c0.1,0.2,0.3,0.4,0.4,0.6l-0.5,0.3c-0.1-0.3-0.3-0.6-0.5-1c-0.2-0.4-0.4-0.7-0.6-0.9L345.4,337.9z"/>
		<path d="M351.3,344.2c0,0.9-0.1,1.7-0.3,2.5s-0.5,1.5-1,2.2s-0.9,1.3-1.5,2l-0.5-0.3c0.6-0.6,1.1-1.2,1.5-1.9
			c0.4-0.7,0.7-1.4,0.9-2.1c0.2-0.7,0.3-1.5,0.3-2.3c0-0.8-0.1-1.6-0.3-2.3s-0.5-1.4-0.9-2.1c-0.4-0.7-0.9-1.3-1.5-1.9l0.5-0.3
			c0.6,0.6,1.1,1.3,1.5,2s0.7,1.4,1,2.2C351.2,342.5,351.3,343.3,351.3,344.2z"/>
	</g>
	<g>
		<path d="M29.2,332.1c-0.1,0.3-0.3,0.6-0.5,1c-0.2,0.4-0.5,0.7-0.7,1.1c-0.3,0.3-0.5,0.7-0.8,1c-0.3,0.3-0.5,0.6-0.7,0.8l-0.6-0.4
			c0.2-0.2,0.5-0.5,0.7-0.8c0.3-0.3,0.5-0.6,0.8-1c0.2-0.3,0.5-0.7,0.7-1s0.4-0.6,0.5-0.9L29.2,332.1z M26.2,329.1
			c0.2,0,0.4,0,0.5,0c0.2,0,0.3,0,0.6,0c0.1,0,0.4,0,0.7,0c0.3,0,0.8,0,1.3,0c0.5,0,1,0,1.6,0c0.6,0,1.1,0,1.7,0c0.6,0,1.1,0,1.6,0
			c0.5,0,0.9,0,1.2,0c0.3,0,0.6,0,0.7,0c0.1,0,0.3,0,0.5,0c0.2,0,0.4,0,0.5,0v0.8c-0.2,0-0.3,0-0.5,0s-0.3,0-0.5,0
			c-0.1,0-0.3,0-0.7,0s-0.8,0-1.2,0c-0.5,0-1,0-1.6,0s-1.1,0-1.7,0s-1.1,0-1.6,0c-0.5,0-0.9,0-1.3,0c-0.3,0-0.6,0-0.7,0
			c-0.2,0-0.4,0-0.6,0s-0.3,0-0.5,0V329.1z M32.2,326.7c0,0.1,0,0.1,0,0.3s0,0.2,0,0.3c0,0.1,0,0.2,0,0.3c0,0.2,0,0.5,0,0.8
			s0,0.6,0,0.9s0,0.5,0,0.7c0,0.2,0,0.5,0,0.8c0,0.4,0,0.8,0,1.2s0,0.9,0,1.4s0,1,0,1.4s0,0.8,0,1.2s0,0.6,0,0.7
			c0,0.3-0.1,0.6-0.2,0.8c-0.2,0.2-0.4,0.2-0.8,0.2c-0.2,0-0.4,0-0.6,0c-0.2,0-0.4,0-0.7,0c-0.2,0-0.4,0-0.6,0l-0.1-0.8
			c0.3,0.1,0.6,0.1,0.9,0.1c0.3,0,0.5,0,0.7,0c0.2,0,0.3,0,0.4-0.1c0.1-0.1,0.1-0.2,0.1-0.4c0-0.1,0-0.4,0-0.7c0-0.3,0-0.7,0-1.2
			c0-0.5,0-0.9,0-1.4c0-0.5,0-1,0-1.4c0-0.4,0-0.8,0-1.1s0-0.5,0-0.6c0-0.2,0-0.4,0-0.7c0-0.3,0-0.6,0-1s0-0.6,0-0.8
			c0-0.1,0-0.3,0-0.5c0-0.2,0-0.3-0.1-0.4H32.2z M35,331.8c0.2,0.2,0.4,0.5,0.6,0.8c0.2,0.3,0.5,0.6,0.7,1c0.2,0.3,0.4,0.7,0.6,1
			c0.2,0.3,0.4,0.6,0.5,0.9l-0.7,0.4c-0.1-0.3-0.3-0.6-0.5-0.9c-0.2-0.3-0.4-0.7-0.6-1c-0.2-0.3-0.4-0.7-0.7-1s-0.4-0.6-0.6-0.8
			L35,331.8z M34.8,327c0-0.3,0.1-0.5,0.2-0.8s0.3-0.4,0.5-0.5c0.2-0.1,0.5-0.2,0.7-0.2c0.3,0,0.5,0.1,0.7,0.2
			c0.2,0.1,0.4,0.3,0.5,0.5s0.2,0.5,0.2,0.8c0,0.3-0.1,0.5-0.2,0.7c-0.1,0.2-0.3,0.4-0.5,0.5c-0.2,0.1-0.5,0.2-0.7,0.2
			c-0.3,0-0.5-0.1-0.7-0.2c-0.2-0.1-0.4-0.3-0.5-0.5C34.8,327.6,34.8,327.3,34.8,327z M35.3,327c0,0.3,0.1,0.5,0.3,0.7
			c0.2,0.2,0.4,0.3,0.7,0.3c0.3,0,0.5-0.1,0.7-0.3c0.2-0.2,0.3-0.4,0.3-0.7c0-0.3-0.1-0.5-0.3-0.7c-0.2-0.2-0.4-0.3-0.7-0.3
			c-0.3,0-0.5,0.1-0.7,0.3C35.4,326.5,35.3,326.8,35.3,327z"/>
		<path d="M44.4,326.6c0,0.1-0.1,0.3-0.1,0.4c-0.1,0.1-0.1,0.3-0.1,0.4c-0.1,0.2-0.1,0.4-0.2,0.6s-0.2,0.5-0.3,0.7
			c-0.1,0.3-0.2,0.5-0.4,0.8c-0.2,0.4-0.4,0.7-0.7,1.2s-0.6,0.8-0.9,1.2c-0.3,0.4-0.6,0.7-0.9,0.9l-0.7-0.4c0.3-0.2,0.5-0.4,0.8-0.7
			c0.3-0.3,0.5-0.5,0.7-0.8s0.4-0.6,0.6-0.9c0.2-0.3,0.3-0.5,0.4-0.7c0.2-0.4,0.4-0.7,0.5-1.1c0.1-0.3,0.2-0.6,0.3-0.9
			c0-0.1,0.1-0.3,0.1-0.5c0-0.2,0-0.3,0-0.5L44.4,326.6z M42.9,329.1c0.1,0,0.3,0,0.6,0c0.3,0,0.7,0,1.1,0c0.4,0,0.9,0,1.4,0
			c0.5,0,1,0,1.5,0c0.5,0,0.9,0,1.4,0s0.8,0,1.1,0c0.3,0,0.5,0,0.5,0c0.2,0,0.4,0,0.6,0c0.2,0,0.4,0,0.6-0.1v0.8c-0.2,0-0.4,0-0.6,0
			c-0.2,0-0.4,0-0.6,0c-0.1,0-0.3,0-0.7,0c-0.4,0-0.8,0-1.3,0s-1.1,0-1.7,0s-1.2,0-1.7,0s-1,0-1.4,0c-0.4,0-0.7,0-0.8,0L42.9,329.1z
			 M47.8,329.4c0,1.1-0.2,2.1-0.4,2.9s-0.5,1.6-0.9,2.3c-0.4,0.7-0.8,1.2-1.3,1.7c-0.5,0.5-1,0.9-1.6,1.3l-0.8-0.5
			c0.2-0.1,0.3-0.1,0.5-0.2c0.2-0.1,0.3-0.2,0.5-0.3c0.3-0.3,0.7-0.6,1.1-1c0.4-0.4,0.7-0.9,1-1.4c0.3-0.6,0.6-1.2,0.8-2
			c0.2-0.8,0.3-1.7,0.4-2.8L47.8,329.4z"/>
		<path d="M54.6,331.5c0.2,0,0.4,0,0.6,0c0.2,0,0.4,0,0.6,0c0.1,0,0.4,0,0.7,0s0.8,0,1.2,0s1,0,1.6,0s1.1,0,1.7,0s1.1,0,1.6,0
			c0.5,0,0.9,0,1.2,0s0.6,0,0.7,0c0.1,0,0.2,0,0.3,0c0.1,0,0.3,0,0.4,0s0.2,0,0.3,0v0.8c-0.1,0-0.3,0-0.5,0c-0.2,0-0.4,0-0.5,0
			c-0.1,0-0.4,0-0.7,0s-0.8,0-1.2,0c-0.5,0-1,0-1.6,0s-1.1,0-1.7,0s-1.1,0-1.6,0s-0.9,0-1.2,0s-0.6,0-0.7,0c-0.2,0-0.4,0-0.6,0
			c-0.2,0-0.4,0-0.6,0V331.5z M55.5,327.6c0.2,0,0.4,0,0.6,0c0.2,0,0.4,0,0.6,0c0.1,0,0.4,0,0.7,0s0.7,0,1.2,0c0.4,0,0.9,0,1.4,0
			s1,0,1.4,0c0.4,0,0.8,0,1.2,0s0.6,0,0.7,0c0.2,0,0.4,0,0.6,0c0.2,0,0.3,0,0.5,0v0.7c-0.1,0-0.3,0-0.5,0c-0.2,0-0.4,0-0.6,0
			c-0.1,0-0.4,0-0.7,0s-0.7,0-1.2,0s-0.9,0-1.4,0c-0.5,0-1,0-1.4,0c-0.4,0-0.8,0-1.2,0s-0.6,0-0.7,0c-0.2,0-0.4,0-0.6,0
			c-0.2,0-0.4,0-0.6,0V327.6z M59.5,331.8c0,0.3,0,0.7,0,1c0,0.4,0,0.7,0,1.1c0,0.3,0,0.7,0,0.9c0,0.3,0,0.5,0,0.6
			c0,0.3,0.1,0.6,0.4,0.8c0.3,0.2,0.8,0.3,1.5,0.3c0.7,0,1.3,0,1.9,0c0.6,0,1.2-0.1,1.8-0.2l0,0.7c-0.4,0-0.8,0.1-1.2,0.1
			c-0.4,0-0.8,0-1.2,0.1c-0.4,0-0.9,0-1.3,0c-0.6,0-1.1-0.1-1.5-0.2c-0.4-0.1-0.6-0.3-0.8-0.6c-0.2-0.3-0.2-0.5-0.2-0.9
			c0-0.3,0-0.6,0-0.9s0-0.6,0-1c0-0.3,0-0.7,0-1c0-0.3,0-0.7,0-1c0-0.1,0-0.3,0-0.6s0-0.5,0-0.8s0-0.6,0-0.9s0-0.6,0-0.9
			s0-0.5,0-0.6l0.7,0c0,0.1,0,0.3,0,0.6s0,0.5,0,0.9s0,0.6,0,1s0,0.6,0,0.8C59.5,331.5,59.5,331.7,59.5,331.8z"/>
		<path d="M69.1,336.7c0.9-0.1,1.7-0.3,2.4-0.5c0.7-0.2,1.3-0.5,1.9-0.8c0.6-0.3,1.1-0.6,1.5-0.9c0.7-0.4,1.3-0.9,1.9-1.5
			c0.6-0.6,1.1-1.2,1.5-1.8c0.4-0.6,0.8-1.2,1-1.7l0.4,0.8c-0.3,0.5-0.7,1.1-1.1,1.7c-0.4,0.6-0.9,1.1-1.5,1.7s-1.2,1-1.9,1.5
			c-0.5,0.3-1,0.6-1.5,0.9s-1.2,0.6-1.9,0.8c-0.7,0.2-1.4,0.4-2.3,0.6L69.1,336.7z M70,327.3c0.3,0.2,0.5,0.4,0.9,0.6
			c0.3,0.2,0.7,0.5,1,0.8c0.3,0.3,0.7,0.5,1,0.8s0.5,0.5,0.7,0.7l-0.5,0.6c-0.2-0.2-0.4-0.4-0.7-0.7c-0.3-0.3-0.6-0.5-0.9-0.8
			c-0.3-0.3-0.7-0.5-1-0.8s-0.6-0.5-0.9-0.6L70,327.3z"/>
		<path d="M87.8,326.4c0,0.1,0,0.3,0,0.5c0,0.2,0,0.4,0,0.5c0,1.4-0.2,2.7-0.4,3.8s-0.5,2-0.9,2.8c-0.4,0.8-0.8,1.4-1.4,2
			c-0.5,0.6-1.1,1.1-1.8,1.5l-0.7-0.5c0.2-0.1,0.4-0.2,0.6-0.4c0.2-0.2,0.4-0.3,0.6-0.5c0.4-0.4,0.8-0.8,1.2-1.3s0.7-1.1,1-1.8
			c0.3-0.7,0.5-1.5,0.7-2.4c0.2-0.9,0.3-2,0.3-3.2c0-0.1,0-0.2,0-0.4c0-0.1,0-0.2,0-0.4c0-0.1,0-0.2,0-0.3H87.8z M92.7,329.3
			c0,0.1,0,0.2,0,0.3c0,0.1,0,0.2,0,0.3c0,0.2,0,0.6,0,1c0,0.4,0,0.9-0.1,1.5c0,0.5-0.1,1.1-0.2,1.6c-0.1,0.5-0.1,1-0.2,1.5
			c-0.1,0.5-0.2,0.8-0.3,1.1c-0.1,0.3-0.3,0.4-0.5,0.6s-0.5,0.2-0.8,0.2c-0.3,0-0.7,0-1.1,0c-0.4,0-0.8,0-1.1,0l-0.1-0.8
			c0.4,0,0.8,0.1,1.1,0.1c0.4,0,0.7,0,1,0c0.2,0,0.4,0,0.5-0.1c0.1-0.1,0.3-0.2,0.3-0.3c0.1-0.2,0.2-0.6,0.3-1
			c0.1-0.4,0.2-0.9,0.2-1.4c0.1-0.5,0.1-1,0.1-1.5c0-0.5,0.1-1,0.1-1.5c0-0.5,0-0.8,0-1.1h-7.7c-0.3,0-0.6,0-0.8,0
			c-0.2,0-0.5,0-0.7,0V329c0.2,0,0.5,0,0.7,0c0.2,0,0.5,0,0.8,0h7.2c0.2,0,0.4,0,0.5,0c0.1,0,0.2,0,0.3,0L92.7,329.3z"/>
		<path d="M96.4,331.5c0.1,0,0.3,0,0.4,0c0.2,0,0.4,0,0.6,0c0.2,0,0.5,0,0.7,0c0.1,0,0.3,0,0.6,0s0.7,0,1.1,0c0.4,0,0.9,0,1.4,0
			c0.5,0,1,0,1.5,0c0.5,0,1,0,1.4,0s0.8,0,1.1,0s0.5,0,0.7,0c0.4,0,0.7,0,0.9,0c0.2,0,0.4,0,0.5,0v0.9c-0.1,0-0.3,0-0.6,0
			c-0.2,0-0.5,0-0.8,0c-0.1,0-0.4,0-0.7,0c-0.3,0-0.7,0-1.1,0c-0.4,0-0.9,0-1.4,0c-0.5,0-1,0-1.5,0s-1,0-1.4,0s-0.8,0-1.1,0
			s-0.5,0-0.6,0c-0.4,0-0.7,0-1,0c-0.3,0-0.6,0-0.7,0V331.5z"/>
		<path d="M113.3,336.3c0-0.1,0-0.3,0-0.7c0-0.4,0-0.8,0-1.4s0-1.1,0-1.8s0-1.2,0-1.8c0-0.6,0-1.1,0-1.5c0-0.4,0-0.8,0-1
			c0-0.2,0-0.4,0-0.6c0-0.3,0-0.5-0.1-0.7h0.9c0,0.2,0,0.4-0.1,0.7c0,0.3,0,0.5,0,0.6c0,0.4,0,0.9,0,1.5s0,1.1,0,1.7s0,1.2,0,1.7
			c0,0.6,0,1.1,0,1.6s0,0.9,0,1.2c0,0.3,0,0.5,0,0.6c0,0.2,0,0.3,0,0.5s0,0.4,0,0.5c0,0.2,0,0.3,0,0.5h-0.9c0-0.2,0-0.4,0-0.7
			S113.3,336.5,113.3,336.3z M113.9,330.5c0.5,0.1,1,0.3,1.5,0.5c0.5,0.2,1.1,0.4,1.7,0.6c0.6,0.2,1.1,0.4,1.6,0.7
			c0.5,0.2,1,0.4,1.4,0.6l-0.3,0.7c-0.4-0.2-0.9-0.5-1.4-0.7s-1-0.5-1.6-0.7c-0.6-0.2-1.1-0.4-1.6-0.6c-0.5-0.2-1-0.3-1.3-0.4V330.5
			z M117.9,327.4c0.1,0.1,0.2,0.3,0.4,0.6c0.2,0.2,0.3,0.5,0.5,0.8s0.3,0.5,0.4,0.7l-0.6,0.3c-0.1-0.2-0.2-0.5-0.4-0.7
			c-0.1-0.3-0.3-0.5-0.4-0.8c-0.1-0.2-0.3-0.5-0.4-0.7L117.9,327.4z M119.5,326.8c0.1,0.1,0.2,0.3,0.4,0.6c0.2,0.2,0.3,0.5,0.5,0.8
			c0.2,0.3,0.3,0.5,0.4,0.7l-0.6,0.3c-0.1-0.2-0.2-0.4-0.4-0.7c-0.1-0.3-0.3-0.5-0.5-0.7c-0.2-0.2-0.3-0.5-0.5-0.7L119.5,326.8z"/>
		<path d="M130.6,327.8c-0.1,0.7-0.2,1.5-0.3,2.3c-0.1,0.8-0.3,1.5-0.5,2.2c-0.3,1-0.6,1.8-0.9,2.4s-0.7,1.1-1,1.4
			c-0.4,0.3-0.7,0.5-1.1,0.5c-0.3,0-0.7-0.1-1-0.4s-0.6-0.7-0.9-1.2c-0.2-0.5-0.4-1.2-0.4-1.9c0-0.7,0.2-1.4,0.5-2.1
			c0.3-0.7,0.7-1.3,1.3-1.8c0.5-0.5,1.2-0.9,1.9-1.2s1.5-0.4,2.3-0.4c0.8,0,1.5,0.1,2.1,0.4c0.6,0.3,1.2,0.6,1.6,1.1
			c0.5,0.5,0.8,1,1.1,1.6c0.2,0.6,0.4,1.2,0.4,1.9c0,1-0.2,1.8-0.6,2.6c-0.4,0.7-1,1.3-1.8,1.8s-1.7,0.7-2.8,0.9l-0.4-0.7
			c0.2,0,0.4,0,0.6-0.1c0.2,0,0.4-0.1,0.5-0.1c0.4-0.1,0.9-0.3,1.3-0.5s0.8-0.5,1.2-0.9c0.4-0.4,0.7-0.8,0.9-1.3
			c0.2-0.5,0.3-1.1,0.3-1.8c0-0.6-0.1-1.1-0.3-1.6c-0.2-0.5-0.5-1-0.9-1.4c-0.4-0.4-0.9-0.7-1.4-0.9c-0.6-0.2-1.2-0.4-1.9-0.4
			c-0.8,0-1.5,0.1-2.1,0.4c-0.6,0.3-1.2,0.7-1.7,1.1c-0.5,0.5-0.8,1-1.1,1.6c-0.2,0.6-0.4,1.1-0.4,1.7c0,0.7,0.1,1.2,0.3,1.6
			c0.2,0.4,0.4,0.7,0.6,0.9c0.3,0.2,0.5,0.3,0.7,0.3s0.5-0.1,0.7-0.3c0.3-0.2,0.5-0.6,0.8-1.1c0.3-0.5,0.5-1.2,0.8-2.1
			c0.2-0.7,0.4-1.4,0.5-2.1c0.1-0.8,0.2-1.5,0.3-2.2H130.6z"/>
		<path d="M137.7,330.8h11.9v0.7h-11.9V330.8z M139,326.4h9v0.6h-9V326.4z M140.9,328.5l0.4-0.5c0.4,0.2,0.9,0.4,1.3,0.6
			c0.5,0.2,0.9,0.4,1.4,0.7c0.5,0.2,0.9,0.4,1.3,0.7c0.4,0.2,0.8,0.4,1,0.6l-0.4,0.6c-0.3-0.2-0.6-0.4-1-0.6
			c-0.4-0.2-0.8-0.4-1.3-0.7s-0.9-0.5-1.4-0.7S141.3,328.7,140.9,328.5z M143.6,331.2h0.7v6.1c0,0.3,0,0.4-0.1,0.6
			c-0.1,0.1-0.2,0.2-0.4,0.3c-0.2,0.1-0.5,0.1-0.9,0.1c-0.4,0-0.9,0-1.5,0c0-0.1-0.1-0.2-0.1-0.3c-0.1-0.1-0.1-0.2-0.2-0.3
			c0.4,0,0.7,0,1,0c0.3,0,0.6,0,0.8,0s0.4,0,0.5,0c0.1,0,0.2,0,0.2-0.1s0.1-0.1,0.1-0.2V331.2z M147.7,326.4h0.2l0.2,0l0.5,0.4
			c-0.4,0.4-0.8,0.8-1.3,1.2c-0.5,0.4-1,0.8-1.5,1.1c-0.5,0.3-1,0.6-1.5,0.9c0-0.1-0.1-0.1-0.1-0.2c-0.1-0.1-0.1-0.1-0.2-0.2
			c-0.1-0.1-0.1-0.1-0.2-0.1c0.5-0.2,0.9-0.5,1.4-0.8c0.5-0.3,1-0.7,1.4-1c0.5-0.4,0.8-0.7,1.1-1V326.4z M149.3,330.8h0.2l0.1-0.1
			l0.5,0.3c-0.4,0.6-0.8,1.2-1.3,1.8c-0.5,0.6-0.9,1.1-1.4,1.5l-0.5-0.3c0.3-0.3,0.5-0.5,0.8-0.9c0.3-0.3,0.6-0.7,0.8-1
			c0.3-0.4,0.5-0.7,0.7-1.1V330.8z"/>
		<path d="M152.3,333.5l0.6,0.1c-0.1,0.7-0.3,1.3-0.4,1.9c-0.2,0.6-0.4,1.2-0.6,1.6c0,0-0.1-0.1-0.2-0.1c-0.1,0-0.1-0.1-0.2-0.1
			c-0.1,0-0.1-0.1-0.2-0.1c0.3-0.4,0.5-1,0.6-1.5C152.1,334.7,152.2,334.1,152.3,333.5z M151.5,331.9c0.6,0,1.4,0,2.2-0.1
			c0.9,0,1.7-0.1,2.7-0.1v0.6c-0.9,0-1.8,0.1-2.6,0.1s-1.6,0.1-2.2,0.1L151.5,331.9z M151.5,328.3l0.4-0.4c0.3,0.2,0.5,0.5,0.8,0.7
			c0.3,0.3,0.5,0.5,0.7,0.8c0.2,0.3,0.4,0.5,0.5,0.7l-0.4,0.5c-0.1-0.2-0.3-0.5-0.5-0.7c-0.2-0.3-0.5-0.5-0.7-0.8
			S151.8,328.6,151.5,328.3z M153.8,325.6l0.6,0.3c-0.2,0.3-0.3,0.7-0.5,1c-0.2,0.4-0.4,0.7-0.6,1.1c-0.2,0.3-0.4,0.6-0.6,0.9
			l-0.5-0.2c0.2-0.3,0.4-0.6,0.6-0.9s0.4-0.7,0.6-1.1C153.5,326.2,153.6,325.9,153.8,325.6z M155.4,327.2l0.6,0.3
			c-0.3,0.5-0.7,1.1-1.1,1.7c-0.4,0.6-0.8,1.2-1.2,1.7c-0.4,0.6-0.8,1-1.1,1.4l-0.5-0.3c0.3-0.3,0.6-0.7,0.8-1.1
			c0.3-0.4,0.6-0.8,0.9-1.3c0.3-0.4,0.6-0.9,0.8-1.3C155,327.9,155.3,327.5,155.4,327.2z M153.9,332.1h0.6v6.2h-0.6V332.1z
			 M154.9,330.4l0.5-0.2c0.2,0.3,0.4,0.6,0.6,1c0.2,0.3,0.4,0.7,0.5,1c0.2,0.3,0.3,0.6,0.3,0.9l-0.6,0.3c-0.1-0.3-0.2-0.5-0.3-0.9
			s-0.3-0.7-0.5-1C155.3,331,155.1,330.6,154.9,330.4z M155.4,333.6l0.5-0.2c0.2,0.4,0.4,0.9,0.6,1.4s0.3,1,0.4,1.3l-0.6,0.2
			c-0.1-0.4-0.2-0.8-0.4-1.3C155.8,334.5,155.6,334,155.4,333.6z M158.8,325.6l0.7,0.2c-0.2,0.7-0.4,1.3-0.7,1.9s-0.6,1.2-0.9,1.8
			c-0.3,0.5-0.7,1-1,1.5c0,0-0.1-0.1-0.2-0.1c-0.1-0.1-0.2-0.1-0.2-0.2c-0.1-0.1-0.1-0.1-0.2-0.1c0.4-0.4,0.7-0.9,1-1.4
			c0.3-0.5,0.6-1.1,0.9-1.7C158.4,326.8,158.7,326.2,158.8,325.6z M158.1,328.2h5.5v0.6h-5.5V328.2z M158.2,331.4l0.6-0.3
			c0.3,0.3,0.6,0.7,0.8,1.1c0.3,0.4,0.5,0.8,0.7,1.2c0.2,0.4,0.4,0.7,0.5,1l-0.6,0.3c-0.1-0.3-0.3-0.6-0.5-1
			c-0.2-0.4-0.5-0.8-0.7-1.2S158.5,331.8,158.2,331.4z M163.3,328.2h0.6c0,0.1,0,0.2,0,0.3s0,0.1,0,0.2c-0.1,1.6-0.1,2.9-0.2,4.1
			c-0.1,1.1-0.1,2-0.2,2.7c-0.1,0.7-0.2,1.2-0.3,1.6c-0.1,0.4-0.2,0.7-0.4,0.8s-0.3,0.3-0.4,0.3c-0.2,0.1-0.4,0.1-0.6,0.1
			c-0.2,0-0.5,0-0.9,0c-0.4,0-0.8,0-1.2-0.1c0-0.1,0-0.2-0.1-0.3c0-0.1-0.1-0.2-0.1-0.3c0.5,0,0.9,0.1,1.3,0.1c0.4,0,0.7,0,0.8,0
			c0.1,0,0.3,0,0.4,0c0.1,0,0.2-0.1,0.2-0.2c0.1-0.1,0.2-0.4,0.3-0.8c0.1-0.4,0.2-0.9,0.3-1.6s0.2-1.6,0.2-2.7s0.1-2.4,0.2-4V328.2z
			"/>
		<path d="M29.3,347c0-0.9,0.1-1.7,0.3-2.5c0.2-0.8,0.5-1.5,1-2.2c0.4-0.7,0.9-1.3,1.5-2l0.5,0.3c-0.6,0.6-1.1,1.2-1.5,1.9
			c-0.4,0.7-0.7,1.4-0.9,2.1S30,346.2,30,347c0,0.8,0.1,1.6,0.3,2.3c0.2,0.7,0.5,1.4,0.9,2.1c0.4,0.7,0.9,1.3,1.5,1.9l-0.5,0.3
			c-0.6-0.6-1.1-1.3-1.5-2c-0.4-0.7-0.7-1.4-1-2.2C29.4,348.7,29.3,347.8,29.3,347z"/>
		<path d="M34.1,345.8H46v0.7H34.1V345.8z M35.4,341.4h9v0.6h-9V341.4z M37.3,343.5l0.4-0.5c0.4,0.2,0.9,0.4,1.3,0.6
			c0.5,0.2,0.9,0.4,1.4,0.7c0.5,0.2,0.9,0.4,1.3,0.7s0.8,0.4,1,0.6l-0.4,0.6c-0.3-0.2-0.6-0.4-1-0.6c-0.4-0.2-0.8-0.4-1.3-0.7
			c-0.5-0.2-0.9-0.5-1.4-0.7S37.7,343.7,37.3,343.5z M40,346.2h0.7v6.1c0,0.3,0,0.4-0.1,0.6c-0.1,0.1-0.2,0.2-0.4,0.3
			c-0.2,0.1-0.5,0.1-0.9,0.1c-0.4,0-0.9,0-1.5,0c0-0.1-0.1-0.2-0.1-0.3c-0.1-0.1-0.1-0.2-0.2-0.3c0.4,0,0.7,0,1,0c0.3,0,0.6,0,0.8,0
			s0.4,0,0.5,0c0.1,0,0.2,0,0.2-0.1s0.1-0.1,0.1-0.2V346.2z M44.1,341.4h0.2l0.2,0l0.5,0.4c-0.4,0.4-0.8,0.8-1.3,1.2
			c-0.5,0.4-1,0.8-1.5,1.1c-0.5,0.3-1,0.6-1.5,0.9c0-0.1-0.1-0.1-0.1-0.2c-0.1-0.1-0.1-0.1-0.2-0.2c-0.1-0.1-0.1-0.1-0.2-0.1
			c0.5-0.2,0.9-0.5,1.4-0.8c0.5-0.3,1-0.7,1.4-1s0.8-0.7,1.1-1V341.4z M45.7,345.8h0.2l0.1-0.1l0.5,0.3c-0.4,0.6-0.8,1.2-1.3,1.8
			c-0.5,0.6-0.9,1.1-1.4,1.5l-0.5-0.3c0.3-0.3,0.5-0.5,0.8-0.9c0.3-0.3,0.6-0.7,0.8-1c0.3-0.4,0.5-0.7,0.7-1.1V345.8z"/>
		<path d="M48.7,348.5l0.6,0.1c-0.1,0.7-0.3,1.3-0.4,1.9c-0.2,0.6-0.4,1.2-0.6,1.6c0,0-0.1-0.1-0.2-0.1c-0.1,0-0.1-0.1-0.2-0.1
			s-0.1-0.1-0.2-0.1c0.3-0.4,0.5-1,0.6-1.5C48.5,349.7,48.6,349.1,48.7,348.5z M47.9,346.9c0.6,0,1.4,0,2.2-0.1
			c0.9,0,1.7-0.1,2.7-0.1v0.6c-0.9,0-1.8,0.1-2.6,0.1c-0.8,0-1.6,0.1-2.2,0.1L47.9,346.9z M47.9,343.3l0.4-0.4
			c0.3,0.2,0.5,0.5,0.8,0.7c0.3,0.3,0.5,0.5,0.7,0.8c0.2,0.3,0.4,0.5,0.5,0.7l-0.4,0.5c-0.1-0.2-0.3-0.5-0.5-0.7
			c-0.2-0.3-0.5-0.5-0.7-0.8S48.2,343.6,47.9,343.3z M50.1,340.6l0.6,0.3c-0.2,0.3-0.4,0.7-0.5,1c-0.2,0.4-0.4,0.7-0.6,1.1
			c-0.2,0.3-0.4,0.6-0.6,0.9l-0.5-0.2c0.2-0.3,0.4-0.6,0.6-0.9s0.4-0.7,0.6-1.1C49.9,341.2,50,340.9,50.1,340.6z M51.8,342.2
			l0.6,0.3c-0.3,0.5-0.7,1.1-1.1,1.7c-0.4,0.6-0.8,1.2-1.2,1.7s-0.8,1-1.1,1.4l-0.5-0.3c0.3-0.3,0.6-0.7,0.8-1.1
			c0.3-0.4,0.6-0.8,0.9-1.3c0.3-0.4,0.6-0.9,0.8-1.3C51.4,342.9,51.7,342.5,51.8,342.2z M50.3,347.1H51v6.2h-0.6V347.1z M51.3,345.4
			l0.5-0.2c0.2,0.3,0.4,0.6,0.6,1c0.2,0.3,0.4,0.7,0.5,1c0.2,0.3,0.3,0.6,0.3,0.9l-0.6,0.3c-0.1-0.3-0.2-0.5-0.3-0.9
			c-0.1-0.3-0.3-0.7-0.5-1C51.7,346,51.5,345.6,51.3,345.4z M51.8,348.6l0.5-0.2c0.2,0.4,0.4,0.9,0.6,1.4c0.2,0.5,0.3,1,0.4,1.3
			l-0.6,0.2c-0.1-0.4-0.2-0.8-0.4-1.3C52.2,349.5,52,349,51.8,348.6z M55.2,340.6l0.7,0.2c-0.2,0.7-0.4,1.3-0.7,1.9
			c-0.3,0.6-0.6,1.2-0.9,1.8s-0.7,1-1,1.5c0,0-0.1-0.1-0.2-0.1c-0.1-0.1-0.2-0.1-0.2-0.2c-0.1-0.1-0.1-0.1-0.2-0.1
			c0.4-0.4,0.7-0.9,1-1.4c0.3-0.5,0.6-1.1,0.9-1.7S55.1,341.2,55.2,340.6z M54.5,343.2H60v0.6h-5.5V343.2z M54.6,346.4l0.6-0.3
			c0.3,0.3,0.6,0.7,0.8,1.1c0.3,0.4,0.5,0.8,0.7,1.2c0.2,0.4,0.4,0.7,0.5,1l-0.6,0.3c-0.1-0.3-0.3-0.6-0.5-1
			c-0.2-0.4-0.5-0.8-0.7-1.2S54.9,346.8,54.6,346.4z M59.7,343.2h0.6c0,0.1,0,0.2,0,0.3s0,0.1,0,0.2c-0.1,1.6-0.1,2.9-0.2,4.1
			c-0.1,1.1-0.1,2-0.2,2.7c-0.1,0.7-0.2,1.2-0.3,1.6c-0.1,0.4-0.2,0.7-0.4,0.8s-0.3,0.3-0.4,0.3c-0.2,0.1-0.4,0.1-0.6,0.1
			c-0.2,0-0.5,0-0.9,0c-0.4,0-0.8,0-1.2-0.1c0-0.1,0-0.2-0.1-0.3s-0.1-0.2-0.1-0.3c0.5,0,0.9,0.1,1.3,0.1c0.4,0,0.7,0,0.8,0
			c0.1,0,0.3,0,0.4,0c0.1,0,0.2-0.1,0.2-0.2c0.1-0.1,0.2-0.4,0.3-0.8c0.1-0.4,0.2-0.9,0.3-1.6s0.2-1.6,0.2-2.7
			c0.1-1.1,0.1-2.4,0.2-4V343.2z"/>
		<path d="M68.2,341.2c-0.4,0.5-0.9,1.1-1.6,1.7c-0.6,0.6-1.4,1.1-2.2,1.7c-0.8,0.5-1.6,1-2.5,1.4c0-0.1-0.1-0.1-0.1-0.2
			c0-0.1-0.1-0.1-0.1-0.2s-0.1-0.1-0.2-0.2c0.8-0.4,1.7-0.9,2.5-1.4s1.5-1.1,2.2-1.7c0.7-0.6,1.2-1.2,1.6-1.7h0.7
			c0.4,0.5,0.8,0.9,1.4,1.4c0.5,0.5,1.1,0.9,1.6,1.3s1.2,0.8,1.8,1.1c0.6,0.3,1.2,0.6,1.7,0.9c-0.1,0.1-0.2,0.2-0.2,0.3
			s-0.1,0.2-0.2,0.3c-0.6-0.3-1.1-0.6-1.7-0.9s-1.2-0.7-1.8-1.1c-0.6-0.4-1.1-0.8-1.6-1.3C69,342.1,68.6,341.6,68.2,341.2z
			 M63.3,346.3h0.6v5.9h-0.6V346.3z M63.6,346.3h3.9v4.6h-3.9v-0.6h3.3V347h-3.3V346.3z M65.5,344.2h5.8v0.6h-5.8V344.2z
			 M68.9,346.3h4.2v0.6h-3.6v6.4h-0.6V346.3z M72.8,346.3h0.7v4.5c0,0.2,0,0.4-0.1,0.5c-0.1,0.1-0.2,0.2-0.4,0.3
			c-0.2,0.1-0.4,0.1-0.8,0.1c-0.3,0-0.8,0-1.4,0c0-0.1,0-0.2-0.1-0.3c0-0.1-0.1-0.2-0.1-0.3c0.5,0,0.9,0,1.2,0s0.6,0,0.7,0
			c0.1,0,0.2,0,0.2-0.1c0,0,0.1-0.1,0.1-0.2V346.3z"/>
		<path d="M76.5,343.3c0.3,0,0.5,0,0.7,0c0.2,0,0.4,0,0.5,0c0.2,0,0.5-0.1,0.9-0.1c0.4,0,0.9-0.1,1.5-0.2c0.6-0.1,1.2-0.1,1.8-0.2
			c0.7-0.1,1.3-0.1,1.9-0.2c0.5,0,1-0.1,1.5-0.1c0.4,0,0.8-0.1,1.2-0.1c0.4,0,0.7,0,1,0v0.7c-0.3,0-0.6,0-0.9,0c-0.3,0-0.7,0-1,0.1
			c-0.3,0-0.6,0.1-0.8,0.2c-0.6,0.2-1,0.5-1.4,0.8c-0.4,0.4-0.8,0.8-1,1.2c-0.3,0.4-0.5,0.9-0.7,1.4c-0.1,0.5-0.2,0.9-0.2,1.3
			c0,0.6,0.1,1.1,0.3,1.6c0.2,0.4,0.5,0.8,0.8,1.1s0.7,0.5,1.2,0.7c0.4,0.2,0.9,0.3,1.4,0.4c0.5,0.1,0.9,0.1,1.4,0.1l-0.3,0.7
			c-0.5,0-1-0.1-1.5-0.2c-0.5-0.1-1-0.3-1.5-0.5c-0.5-0.2-0.9-0.5-1.3-0.9c-0.4-0.4-0.7-0.8-0.9-1.3c-0.2-0.5-0.3-1-0.3-1.7
			c0-0.8,0.1-1.5,0.4-2.1s0.7-1.2,1.1-1.7c0.4-0.5,0.9-0.9,1.4-1.1c-0.3,0-0.7,0.1-1.2,0.1c-0.5,0-1,0.1-1.6,0.2
			c-0.6,0.1-1.1,0.1-1.7,0.2s-1.1,0.1-1.5,0.2c-0.5,0.1-0.8,0.1-1.1,0.2L76.5,343.3z M85.5,345c0.1,0.1,0.2,0.3,0.4,0.6
			s0.3,0.5,0.4,0.7s0.3,0.5,0.4,0.7l-0.5,0.3c-0.1-0.3-0.3-0.7-0.5-1c-0.2-0.4-0.4-0.7-0.6-1L85.5,345z M87,344.5
			c0.1,0.1,0.3,0.3,0.4,0.6c0.1,0.2,0.3,0.5,0.4,0.7c0.2,0.2,0.3,0.5,0.4,0.7l-0.5,0.3c-0.2-0.3-0.3-0.7-0.6-1
			c-0.2-0.4-0.4-0.7-0.6-1L87,344.5z"/>
		<path d="M90.7,343.4c0.4,0,0.8,0,1.2,0c0.5,0,1,0,1.5,0c0.5,0,1.1,0,1.7,0c0.6,0,1.1,0,1.7,0c0.5,0,1,0,1.5,0c0.5,0,0.9,0,1.3,0
			c0.4,0,0.8,0,1.1,0s0.6,0,0.9,0c0.3,0,0.5,0,0.6,0l0,0.7c-0.4,0-0.9,0-1.5,0c-0.6,0-1.4,0-2.5,0c-0.6,0-1.2,0-1.9,0
			c-0.7,0-1.3,0-2,0s-1.3,0.1-2,0.1c-0.6,0-1.2,0.1-1.7,0.1L90.7,343.4z M97.9,347.4c0,0.5-0.1,1-0.3,1.4c-0.2,0.4-0.4,0.6-0.7,0.8
			c-0.3,0.2-0.6,0.3-1,0.3c-0.3,0-0.6,0-0.9-0.1c-0.3-0.1-0.5-0.2-0.7-0.4c-0.2-0.2-0.4-0.4-0.5-0.7s-0.2-0.6-0.2-0.9
			c0-0.4,0.1-0.8,0.3-1.2c0.2-0.3,0.5-0.6,0.8-0.8c0.3-0.2,0.7-0.3,1.1-0.3c0.5,0,0.9,0.1,1.3,0.3c0.3,0.2,0.6,0.5,0.7,0.9
			c0.2,0.4,0.2,0.9,0.2,1.4c0,0.5-0.1,1-0.2,1.4c-0.1,0.5-0.3,0.9-0.6,1.4c-0.3,0.4-0.7,0.8-1.2,1.2s-1.2,0.7-2,0.9l-0.6-0.6
			c0.7-0.2,1.2-0.4,1.7-0.6c0.5-0.3,0.9-0.6,1.2-0.9s0.6-0.8,0.7-1.2c0.2-0.5,0.2-1,0.2-1.5c0-0.7-0.1-1.3-0.4-1.6s-0.7-0.5-1.1-0.5
			c-0.3,0-0.5,0.1-0.8,0.2c-0.2,0.1-0.4,0.3-0.6,0.6s-0.2,0.5-0.2,0.9c0,0.5,0.2,0.9,0.5,1.2s0.7,0.4,1.1,0.4c0.3,0,0.6-0.1,0.8-0.3
			c0.2-0.2,0.4-0.4,0.5-0.8c0.1-0.3,0.1-0.7,0.1-1.2L97.9,347.4z M97.9,341.3c0,0,0,0.1,0,0.2c0,0.1,0,0.2,0,0.3c0,0.1,0,0.2,0,0.2
			c0,0.2,0,0.4,0,0.7c0,0.3,0,0.6,0,1s0,0.7,0,1.1s0,0.7,0,1c0,0.3,0,0.6,0,0.8l-0.7-0.5c0-0.1,0-0.3,0-0.5s0-0.5,0-0.9
			c0-0.3,0-0.7,0-1c0-0.4,0-0.7,0-1s0-0.5,0-0.7c0-0.1,0-0.3,0-0.4c0-0.1,0-0.2,0-0.3H97.9z"/>
		<path d="M107.3,347c0,0.9-0.1,1.7-0.3,2.5s-0.5,1.5-1,2.2c-0.4,0.7-0.9,1.3-1.5,2l-0.5-0.3c0.6-0.6,1.1-1.2,1.5-1.9
			s0.7-1.4,0.9-2.1c0.2-0.7,0.3-1.5,0.3-2.3c0-0.8-0.1-1.6-0.3-2.3s-0.5-1.4-0.9-2.1c-0.4-0.7-0.9-1.3-1.5-1.9l0.5-0.3
			c0.6,0.6,1.1,1.3,1.5,2c0.4,0.7,0.7,1.4,1,2.2C107.2,345.3,107.3,346.1,107.3,347z"/>
	</g>
	<g>
		<path d="M289.7,192.9c0,0.1,0,0.3,0,0.5c0,0.2,0,0.4,0,0.5c0,1.4-0.2,2.7-0.4,3.8c-0.2,1.1-0.5,2-0.9,2.8c-0.4,0.8-0.8,1.4-1.4,2
			c-0.5,0.6-1.1,1.1-1.8,1.5l-0.7-0.5c0.2-0.1,0.4-0.2,0.6-0.4c0.2-0.2,0.4-0.3,0.6-0.5c0.4-0.4,0.8-0.8,1.2-1.3s0.7-1.1,1-1.8
			c0.3-0.7,0.5-1.5,0.7-2.4s0.3-2,0.3-3.2c0-0.1,0-0.2,0-0.4c0-0.1,0-0.2,0-0.4c0-0.1,0-0.2,0-0.3H289.7z M294.6,195.8
			c0,0.1,0,0.2,0,0.3c0,0.1,0,0.2,0,0.3c0,0.2,0,0.6,0,1s0,0.9-0.1,1.5c0,0.5-0.1,1.1-0.2,1.6c-0.1,0.5-0.1,1-0.2,1.5
			c-0.1,0.5-0.2,0.8-0.3,1.1c-0.1,0.3-0.3,0.4-0.5,0.6c-0.2,0.1-0.5,0.2-0.8,0.2c-0.3,0-0.7,0-1.1,0c-0.4,0-0.8,0-1.1,0l-0.1-0.8
			c0.4,0,0.8,0.1,1.1,0.1c0.4,0,0.7,0,1,0c0.2,0,0.4,0,0.5-0.1c0.1-0.1,0.3-0.2,0.3-0.3c0.1-0.2,0.2-0.6,0.3-1
			c0.1-0.4,0.2-0.9,0.2-1.4s0.1-1,0.1-1.5c0-0.5,0.1-1,0.1-1.5c0-0.5,0-0.8,0-1.1h-7.7c-0.3,0-0.6,0-0.8,0c-0.2,0-0.5,0-0.7,0v-0.8
			c0.2,0,0.5,0,0.7,0c0.2,0,0.5,0,0.8,0h7.2c0.2,0,0.4,0,0.5,0c0.1,0,0.2,0,0.3,0L294.6,195.8z"/>
		<path d="M307.8,193.7c-0.1,0.1-0.1,0.3-0.2,0.4c-0.1,0.2-0.1,0.3-0.2,0.5c-0.2,0.5-0.4,1-0.6,1.5c-0.2,0.5-0.5,1.1-0.8,1.6
			c-0.3,0.5-0.7,1-1,1.5c-0.4,0.6-1,1.2-1.5,1.7c-0.6,0.6-1.2,1.1-1.9,1.7c-0.7,0.5-1.5,1-2.4,1.5l-0.6-0.5c1.3-0.6,2.5-1.4,3.4-2.2
			c0.9-0.8,1.8-1.7,2.5-2.6c0.6-0.7,1.1-1.5,1.5-2.3s0.7-1.5,0.9-2.2c0-0.1,0.1-0.3,0.1-0.4s0.1-0.3,0.1-0.5L307.8,193.7z
			 M300.6,195.5c0.3,0.2,0.7,0.5,1.1,0.7c0.4,0.3,0.8,0.6,1.2,0.9s0.8,0.6,1.1,0.8c0.3,0.3,0.7,0.5,0.9,0.7c0.7,0.6,1.3,1.1,2,1.7
			c0.6,0.6,1.2,1.2,1.8,1.8l-0.5,0.6c-0.6-0.7-1.2-1.3-1.8-1.8c-0.6-0.6-1.3-1.1-1.9-1.7c-0.3-0.2-0.6-0.5-0.9-0.7
			c-0.3-0.3-0.7-0.6-1.1-0.8s-0.8-0.6-1.2-0.8c-0.4-0.3-0.8-0.5-1.1-0.7L300.6,195.5z"/>
		<path d="M322.8,197c0,0-0.1,0.1-0.1,0.2c0,0.1-0.1,0.1-0.1,0.2c-0.2,0.7-0.4,1.4-0.7,2.1c-0.3,0.7-0.8,1.4-1.3,1.9
			c-0.7,0.8-1.5,1.4-2.4,1.9c-0.9,0.4-1.7,0.8-2.6,1l-0.6-0.6c1-0.2,1.9-0.5,2.7-1s1.6-1,2.2-1.7c0.5-0.5,0.8-1,1.1-1.7
			c0.3-0.6,0.5-1.2,0.7-1.8c-0.1,0-0.3,0-0.6,0s-0.7,0-1.1,0s-0.9,0-1.4,0c-0.5,0-1,0-1.5,0c-0.5,0-1,0-1.4,0s-0.8,0-1.1,0
			c-0.3,0-0.5,0-0.6,0c-0.2,0-0.3,0-0.6,0s-0.4,0-0.7,0v-0.8c0.2,0,0.5,0,0.7,0.1c0.2,0,0.4,0,0.6,0c0.1,0,0.3,0,0.6,0s0.7,0,1.1,0
			c0.4,0,0.9,0,1.4,0s1,0,1.5,0s1,0,1.4,0s0.8,0,1.1,0s0.5,0,0.6,0c0.1,0,0.2,0,0.4,0c0.1,0,0.2,0,0.3-0.1L322.8,197z M314.1,193.6
			c0.2,0,0.4,0,0.5,0c0.2,0,0.4,0,0.6,0c0.1,0,0.4,0,0.7,0c0.4,0,0.8,0,1.3,0c0.5,0,1,0,1.4,0c0.5,0,0.9,0,1.3,0s0.7,0,0.8,0
			c0.2,0,0.4,0,0.6,0c0.2,0,0.4,0,0.5,0v0.8c-0.2,0-0.3,0-0.5,0s-0.4,0-0.6,0c-0.2,0-0.4,0-0.8,0s-0.8,0-1.3,0s-1,0-1.4,0
			c-0.5,0-0.9,0-1.3,0s-0.6,0-0.8,0c-0.2,0-0.4,0-0.6,0c-0.2,0-0.4,0-0.5,0V193.6z"/>
	</g>
	<g>
		<path d="M58.5,32v2.9c0.9,0.4,2.1,0.6,3.6,0.6h2.8c1.2,0,2.5,0,2.9,0c-0.2,0.2-0.3,0.7-0.4,0.9h-5.3c-3.1,0-4.9-0.5-5.9-2.6
			c-0.2,1.1-0.5,2.1-1,3c-0.1-0.2-0.4-0.5-0.6-0.5c1-1.7,1.1-4.2,1.1-6l1.1,0.1c0,0.1-0.1,0.2-0.3,0.2c0,0.5,0,1.1,0,1.7
			c0.3,1,0.7,1.7,1.3,2.2v-5.2h-2.8v-0.9h2.6v-1.9h-2.1v-0.9h2.1v-1.8l1.1,0.1c0,0.1-0.1,0.2-0.3,0.2v1.6h1.9v0.9h-1.9v1.9h2.3v0.9
			h-2.1v2.1h1.9V32H58.5z M60.8,32.5V25h-0.9v-0.8h6.9V25h-2.7v1.4h2.9l0.2,0l0.5,0.2c0,0.1-0.1,0.1-0.1,0.2
			c-0.2,2.1-0.6,3.9-1.2,5.3c0.4,0.8,1,1.5,1.6,1.9c-0.2,0.1-0.4,0.4-0.6,0.6c-0.6-0.4-1.1-1-1.5-1.7c-0.4,0.7-0.8,1.2-1.2,1.6
			c-0.1-0.2-0.4-0.5-0.6-0.7c0.5-0.5,1-1.1,1.3-1.8c-0.6-1.2-1-2.6-1.2-4.2l0.7-0.2c0.2,1.2,0.5,2.4,0.9,3.4
			c0.4-1.1,0.7-2.3,0.8-3.8h-2.6v7.6h-0.8v-2l-2.9,0.6c0,0.1-0.1,0.2-0.2,0.2l-0.3-0.9L60.8,32.5z M63.3,26.8V25h-1.7v1.8H63.3z
			 M63.3,29.5v-1.9h-1.7v1.9H63.3z M61.6,32.4l1.7-0.3v-1.8h-1.7V32.4z"/>
		<path d="M73.3,32.4h-3.2v1.5h-0.9v-8.7h4V32.4z M72.4,26h-2.2v5.5h2.2V26z M81.6,30.6h-3.1c0.8,1.8,2.1,3.6,3.5,4.5
			c-0.2,0.2-0.5,0.5-0.7,0.7c-1.3-1-2.5-2.7-3.3-4.6v5.5h-1v-5.3c-1.1,1.9-2.6,3.6-4.3,4.5c-0.2-0.2-0.4-0.6-0.7-0.7
			c1.8-0.9,3.5-2.6,4.5-4.6h-2.9v-0.9H77v-2.5h-3v-0.9h3v-2.4l1.2,0.1c0,0.1-0.1,0.2-0.3,0.2v2.2h3.2v0.9h-3.2v2.5h3.6V30.6z"/>
		<path d="M85.5,30.1c0,0.5-0.4,0.9-0.9,0.9s-0.9-0.4-0.9-0.9s0.4-0.9,0.9-0.9C85.1,29.3,85.5,29.7,85.5,30.1z M90.1,30.1
			c0,0.5-0.4,0.9-0.9,0.9s-0.9-0.4-0.9-0.9s0.4-0.9,0.9-0.9C89.8,29.3,90.1,29.7,90.1,30.1z M94.8,30.1c0,0.5-0.4,0.9-0.9,0.9
			S93,30.6,93,30.1s0.4-0.9,0.9-0.9C94.4,29.3,94.8,29.7,94.8,30.1z"/>
		<path d="M101.5,26.2c0,0.1-0.2,0.2-0.4,0.2c-0.6,3.4-1.7,6.9-3.4,9c-0.3-0.2-0.6-0.4-0.9-0.5c1.6-1.9,2.8-5.5,3.2-9L101.5,26.2z
			 M108.5,35.3c-0.7-2.5-2.3-6.4-3.7-9l0.9-0.4c1.5,2.5,3.1,6.5,3.8,9L108.5,35.3z M106.5,24.1c0.6,0.6,1.3,1.4,1.7,2.1l-0.5,0.4
			c-0.4-0.6-1.1-1.5-1.7-2.1L106.5,24.1z M108.4,23.3c0.6,0.6,1.3,1.4,1.7,2.1l-0.5,0.4c-0.4-0.6-1.1-1.5-1.7-2.1L108.4,23.3z"/>
		<path d="M121,25.5c0,0.1-0.1,0.1-0.2,0.2c-0.8,1.8-1.7,3.3-2.8,4.8c1.5,1.2,3.8,3.3,5.1,4.7l-0.9,0.7c-1.2-1.4-3.5-3.6-4.9-4.7
			c-1.2,1.5-3.4,3.5-5.4,4.7c-0.2-0.2-0.5-0.6-0.7-0.8c3.9-2.1,6.9-6.1,8.2-9.1h-6.9v-1h7.4l0.2-0.1L121,25.5z"/>
		<path d="M136.6,25.8c0,0.1-0.1,0.1-0.2,0.2c-1.1,5.3-3.9,8.5-8.4,10.1c-0.2-0.2-0.5-0.6-0.6-0.8c4.3-1.4,7-4.5,7.8-8.8H126v-0.9
			h9.5l0.2-0.1L136.6,25.8z"/>
		<path d="M149.5,27.3c-0.1,0.1-0.1,0.1-0.2,0.1c-0.1,0-0.1,0-0.2,0c-0.9,0.9-2,1.8-3.1,2.6c0.2,0.1,0.3,0.1,0.3,0.1
			c0,0.1-0.1,0.1-0.2,0.2v6.1h-0.9v-5.8c-1.2,0.8-3.1,1.9-4.6,2.7c-0.1-0.2-0.3-0.5-0.5-0.7c2.4-1.1,6-3.2,8.4-5.9L149.5,27.3z"/>
		<path d="M155.4,27.8c0.4,0.9,0.9,2.2,1.1,3l-0.8,0.2c-0.2-0.8-0.6-2.1-1-3L155.4,27.8z M163.8,27.9c0,0.1-0.2,0.2-0.3,0.1
			c-1.1,4.1-3.2,6.6-6.5,8c-0.1-0.2-0.4-0.5-0.5-0.6c3.3-1.3,5.3-3.6,6.3-7.8L163.8,27.9z M158.8,27.1c0.3,0.9,0.6,2.3,0.7,3.2
			l-0.8,0.2c-0.1-0.9-0.4-2.2-0.7-3.2L158.8,27.1z"/>
		<path d="M167.9,28.1c1.3,0.3,2.8,0.8,3.8,1.3l-0.4,0.9c-0.9-0.4-2.5-1-3.8-1.3L167.9,28.1z M168.7,34.9c4.6-1.5,7.7-4,9.5-8.2
			c0.2,0.2,0.6,0.5,0.9,0.6c-1.9,4.2-5.1,6.8-9.4,8.3c0,0.1,0,0.3-0.2,0.4L168.7,34.9z M169.4,24.6c1.3,0.3,2.8,0.9,3.8,1.4
			l-0.5,0.9c-1-0.5-2.5-1.1-3.7-1.4L169.4,24.6z"/>
		<path d="M182.4,25.2c1.5,0.5,3.1,1.2,4.2,1.9L186,28c-1-0.7-2.7-1.5-4.1-1.9L182.4,25.2z M182.3,34.9c5-1.5,8.3-4.3,10-8.2
			c0.3,0.2,0.6,0.4,0.9,0.6c-1.8,3.8-5.2,6.8-9.9,8.4c0,0.1-0.1,0.3-0.2,0.3L182.3,34.9z"/>
		<path d="M206.1,26.8c-0.1,0.1-0.1,0.2-0.2,0.2c-1.5,4.6-3.8,7.4-7.6,9.4c-0.2-0.2-0.4-0.6-0.7-0.8c3.6-1.8,5.9-4.4,7-8.3h-4.9
			c-0.8,1.3-1.8,2.4-3.1,3.4c-0.2-0.2-0.5-0.5-0.8-0.6c1.9-1.4,3.5-3.6,4.4-6.1l1.3,0.4c0,0.1-0.2,0.2-0.4,0.2
			c-0.3,0.6-0.6,1.3-0.9,1.9h4.9l0.2-0.1L206.1,26.8z M204.3,23.6c0.7,0.5,1.4,1.4,1.8,2l-0.5,0.4c-0.4-0.6-1.2-1.5-1.8-2
			L204.3,23.6z M206.4,23.2c0.7,0.5,1.4,1.4,1.8,2l-0.5,0.4c-0.4-0.6-1.1-1.4-1.8-2L206.4,23.2z"/>
		<path d="M65.9,53.7c0,0.1-0.1,0.2-0.3,0.2v1.4h2v0.9h-2V60c0,0.6-0.1,0.8-0.5,1c-0.4,0.1-1.1,0.2-2.3,0.2c0-0.3-0.2-0.6-0.3-0.9
			c0.5,0,1,0,1.3,0c0.7,0,0.8,0,0.8-0.3v-3.9h-5v-0.5l-1.6,0.5v5.1h-0.9v-4.8l-1.9,0.5c0,0.1-0.1,0.2-0.2,0.2L54.7,56
			c0.7-0.1,1.5-0.4,2.5-0.6V52h-1.2c-0.2,0.8-0.4,1.6-0.6,2.2c-0.2-0.1-0.4-0.4-0.6-0.5c0.4-1.1,0.7-3,0.8-4.8l1.1,0.3
			c0,0.1-0.1,0.2-0.3,0.2c-0.1,0.6-0.1,1.2-0.2,1.8h1.1v-2.9l1.2,0.1c0,0.1-0.1,0.2-0.3,0.2v2.7h1.8V52h-1.8v3.2
			c0.6-0.2,1.2-0.3,1.9-0.5l0.1,0.6h4.7v-1.6L65.9,53.7z M64,52.6h3.8v0.9h-8.3v-0.9H63v-1.8h-2.8v-0.9H63v-1.7l1.2,0.1
			c0,0.1-0.1,0.2-0.3,0.2v1.4h3v0.9h-3V52.6z M62.1,59.5c-0.3-0.7-1-1.6-1.7-2.3l0.7-0.4c0.7,0.7,1.4,1.6,1.7,2.3L62.1,59.5z"/>
		<path d="M73.5,55.2l-1.7,0.6V60c0,1-0.5,1.2-2.3,1.1c0-0.2-0.2-0.6-0.3-0.9c0.7,0,1.3,0,1.4,0c0.2,0,0.3-0.1,0.3-0.3v-3.9
			c-0.7,0.2-1.3,0.4-1.7,0.6c0,0.1-0.1,0.2-0.2,0.2l-0.4-1.1c0.6-0.2,1.4-0.4,2.3-0.7v-3.3h-2.1V51h2.1v-2.8l1.2,0.1
			c0,0.1-0.1,0.2-0.3,0.2V51h1.6v0.9h-1.6v3l1.6-0.5L73.5,55.2z M80.4,53.8l0.6,0.3c0,0.1-0.1,0.1-0.1,0.2c-0.6,1.7-1.5,3.1-2.7,4.2
			c1,0.8,2.3,1.5,3.7,1.9c-0.2,0.2-0.5,0.6-0.6,0.8c-1.5-0.4-2.7-1.1-3.8-2.1c-1.2,1-2.7,1.7-4.2,2.1c-0.1-0.2-0.3-0.6-0.5-0.8
			c1.4-0.4,2.8-1,4-1.9c-0.9-1-1.6-2.1-2.1-3.5l0.7-0.2h-1.4v-0.9H77v-2.5h-3.4v-0.9H77v-2.3l1.2,0.1c0,0.1-0.1,0.2-0.3,0.2v2.1h3.6
			v0.9H78v2.5h2.2L80.4,53.8z M75.5,54.7c0.5,1.2,1.1,2.2,2,3.1c0.9-0.9,1.7-1.9,2.2-3.1H75.5z"/>
		<path d="M85.5,54.6c0,0.5-0.4,0.9-0.9,0.9s-0.9-0.4-0.9-0.9s0.4-0.9,0.9-0.9C85.1,53.8,85.5,54.2,85.5,54.6z M90.1,54.6
			c0,0.5-0.4,0.9-0.9,0.9s-0.9-0.4-0.9-0.9s0.4-0.9,0.9-0.9C89.8,53.8,90.1,54.2,90.1,54.6z M94.8,54.6c0,0.5-0.4,0.9-0.9,0.9
			S93,55.1,93,54.6s0.4-0.9,0.9-0.9C94.4,53.8,94.8,54.2,94.8,54.6z"/>
		<path d="M97.2,52.1c0.9,0.4,1.9,1,2.5,1.4l-0.5,0.8c-0.5-0.5-1.6-1.1-2.4-1.5L97.2,52.1z M97,60.4c0.7-1.1,1.6-3,2.3-4.6l0.7,0.6
			c-0.6,1.5-1.5,3.2-2.1,4.3c0.1,0.1,0.1,0.1,0.1,0.2c0,0.1,0,0.1,0,0.2L97,60.4z M98,48.3c0.9,0.4,1.9,1.1,2.4,1.6
			c-0.3,0.4-0.4,0.6-0.6,0.8c-0.5-0.5-1.5-1.2-2.4-1.6L98,48.3z M108.7,59.9h1v0.8H99.7v-0.8h1.3v-4.5h7.8V59.9z M108.3,48.8v5.4
			h-6.9v-5.4H108.3z M101.8,56.3v3.6h1.5v-3.6H101.8z M107.4,51.1v-1.5h-5v1.5H107.4z M107.4,53.4v-1.5h-5v1.5H107.4z M105.6,56.3
			h-1.5v3.6h1.5V56.3z M107.8,56.3h-1.5v3.6h1.5V56.3z"/>
		<path d="M115.3,55.6l0.6,0.3c0,0.1-0.1,0.1-0.1,0.1c-0.8,2.3-2.6,3.9-4.6,4.7c-0.1-0.2-0.4-0.6-0.5-0.8c1.6-0.6,3.2-1.8,4-3.5
			h-3.4v-0.9h3.9L115.3,55.6z M117.7,54.7c0.4,0.8,0.8,1.6,1.4,2.2c1-0.6,2.2-1.5,2.9-2.2l0.9,0.7c-0.1,0.1-0.2,0.1-0.3,0.1
			c-0.8,0.6-2,1.4-3,2c1.1,1.1,2.5,1.9,4.2,2.3c-0.2,0.2-0.5,0.6-0.6,0.8c-2.4-0.7-4.3-2.2-5.5-4.3V60c0,0.6-0.1,0.8-0.6,1
			c-0.4,0.1-1.2,0.1-2.3,0.1c-0.1-0.3-0.2-0.6-0.3-0.9c0.5,0,1,0,1.4,0c0.8,0,0.9,0,0.9-0.3v-5.4h-4.3v-5.2h3.6
			c0.3-0.4,0.5-0.9,0.6-1.3l1.2,0.3c0,0.1-0.1,0.1-0.3,0.1c-0.1,0.3-0.3,0.6-0.5,0.9h4.9v5.2h-4.2c0,0-0.1,0-0.1,0V54.7z
			 M113.4,50.2v1.4h7.6v-1.4H113.4z M113.4,52.4v1.5h7.6v-1.5H113.4z"/>
		<path d="M137.5,57.9v0.9h-5.9v2.4h-1v-2.4H125v-0.9h5.7v-1.3h-4.2v-5.3h4.1v-3.2l1.2,0.1c0,0.1-0.1,0.2-0.3,0.2v0.9h5.5v0.8h-5.5
			v1.2h4.6v5.3h-4.5v1.3H137.5z M127.4,52.2v1.4h7.7v-1.4H127.4z M127.4,54.4v1.5h7.7v-1.5H127.4z"/>
		<path d="M141.5,57.5c0.6-0.2,1.2-0.4,1.9-0.6l0.1,0.8c-1.6,0.5-3.3,1.1-4.4,1.4c0,0.1-0.1,0.2-0.2,0.2l-0.4-1.1
			c0.5-0.2,1.2-0.4,2-0.6v-3.5H139v-0.9h1.6v-3.1h-1.8v-0.9h4.7v0.9h-1.9v3.1h1.7v0.9h-1.7V57.5z M142.3,58.8c1-0.5,2.4-1.5,3.7-2.3
			l0.3,0.8c-1.2,0.8-2.5,1.7-3.3,2.3c0,0.1,0,0.2-0.1,0.3L142.3,58.8z M147.8,51.6V52c0.6,3.7,1.7,5.7,4.2,7.4
			c-0.2,0.2-0.5,0.5-0.6,0.7c-1.8-1.3-2.9-2.7-3.6-4.7v4.4c0,1.1-0.6,1.2-2.7,1.2c-0.1-0.3-0.2-0.7-0.3-0.9c0.4,0,0.7,0,1,0
			c1.1,0,1.1,0,1.1-0.3v-8.4h-3.7v-0.9h3.7v-2.5l1.2,0.1c0,0.1-0.1,0.2-0.3,0.2v2.3h4.1v0.9H147.8z M144.2,52.5
			c0.7,0.8,1.4,1.9,1.7,2.6l-0.8,0.4c-0.3-0.7-1-1.8-1.6-2.7L144.2,52.5z M149.3,48.3c0.8,0.4,1.7,1.1,2.2,1.6l-0.6,0.6
			c-0.4-0.5-1.3-1.2-2.1-1.6L149.3,48.3z M151.8,53c-0.1,0.1-0.2,0.1-0.3,0.1c-0.5,0.7-1.3,1.8-1.9,2.5c0,0-0.7-0.4-0.7-0.4
			c0.6-0.7,1.4-1.9,1.9-2.7L151.8,53z"/>
		<path d="M158.8,61.9c-1-1.3-2.1-3.3-2.1-6.4c0-3.1,1.1-5.2,2.1-6.5h1c-1.2,1.6-2,3.6-2,6.5c0,2.8,0.9,4.8,2,6.4H158.8z"/>
		<path d="M166.8,56.8l1.6-0.6l0.2,0.8c-1.5,0.7-3,1.3-4,1.8c0,0.1-0.1,0.2-0.2,0.2l-0.5-1.1c0.5-0.2,1.2-0.4,1.9-0.7v-4.7h-1.7
			v-0.9h1.7v-3.3l1.2,0.1c0,0.1-0.1,0.2-0.3,0.2v3.1h1.6v0.9h-1.6V56.8z M170.5,59c0,0.8,0.2,1,1.2,1h3.6c0.8,0,1-0.4,1.1-2.1
			c0.2,0.2,0.6,0.3,0.9,0.4c-0.2,1.9-0.5,2.5-1.9,2.5h-3.6c-1.6,0-2-0.4-2-1.8v-4.7l-1.4,0.6l-0.4-0.8l1.8-0.8v-3.8l1.2,0.1
			c0,0.1-0.1,0.2-0.3,0.2v3.2l2-0.9v-3.9l1.2,0.1c0,0.1-0.1,0.2-0.3,0.2v3.3l2.2-1l0.2-0.2l0.8,0.3c0,0.1-0.1,0.1-0.1,0.2
			c0,2.7,0,4.9-0.2,5.4c-0.1,0.9-0.6,1-2.1,1c0-0.3-0.1-0.6-0.2-0.8c0.4,0,0.8,0,1,0c0.2,0,0.4-0.1,0.4-0.4c0.1-0.4,0.1-2.1,0.1-4.4
			l-2.2,0.9V58h-0.9v-5l-2,0.9V59z"/>
		<path d="M183.3,54.5c0,0.1-0.1,0.2-0.3,0.2c-0.3,2.7-0.9,5.2-4.2,6.5c-0.1-0.2-0.4-0.6-0.6-0.8c3.1-1.1,3.6-3.4,3.8-6L183.3,54.5z
			 M186.9,59.6c0,0.5,0.1,0.6,0.7,0.6h1.9c0.6,0,0.7-0.4,0.8-2.6c0.2,0.2,0.6,0.4,0.9,0.4c-0.1,2.4-0.4,3.1-1.6,3.1h-2.1
			c-1.2,0-1.5-0.3-1.5-1.5v-5.4h-7.6v-0.9h12.5v0.9H187l-0.1,0V59.6z M189.6,49.2v0.9h-10.1v-0.9H189.6z"/>
		<path d="M199.4,50.7c-0.1,0.1-0.2,0.2-0.4,0.2c-0.5,4.4-2,8.2-4.3,8.2c-1.2,0-2.2-1.2-2.2-3.4c0-3.4,2.6-6.2,6.3-6.2
			c4,0,5.8,2.6,5.8,5.3c0,3.3-1.9,4.9-5.3,5.7c-0.1-0.2-0.4-0.6-0.6-0.9c3.2-0.6,4.9-2.2,4.9-4.8c0-2.3-1.5-4.4-4.8-4.4
			c-0.1,0-0.3,0-0.4,0L199.4,50.7z M198,50.5c-2.8,0.4-4.6,2.7-4.6,5.1c0,1.5,0.6,2.4,1.3,2.4C196.5,58.1,197.7,54.4,198,50.5z"/>
		<path d="M218.7,52.7h-2.9v1c0,2.7-0.8,5.4-4.5,7c-0.2-0.2-0.5-0.5-0.7-0.7c3.6-1.5,4.2-4,4.2-6.3v-1h-4.5v3.5h-1v-3.5h-2.7v-1h2.7
			v-3l1.3,0.1c0,0.1-0.1,0.3-0.3,0.3v2.7h4.5v-3.2l1.3,0.1c0,0.1-0.1,0.2-0.4,0.3v2.9h2.9V52.7z"/>
		<path d="M220.7,53.9h11.7v1h-11.2c-0.1,0.1-0.3,0.2-0.4,0.3L220.7,53.9z"/>
		<path d="M245.5,51.2c-0.1,0.1-0.1,0.1-0.2,0.2c-1.5,4.5-3.8,7.5-7.6,9.4c-0.2-0.2-0.4-0.6-0.7-0.8c3.7-1.8,5.9-4.6,7.1-8.3h-5
			c-0.8,1.3-1.9,2.5-3.1,3.5c-0.2-0.2-0.5-0.5-0.8-0.6c1.9-1.5,3.5-3.6,4.5-6.1l1.3,0.4c-0.1,0.1-0.2,0.2-0.4,0.2
			c-0.3,0.6-0.6,1.2-0.9,1.8h4.9l0.2-0.1L245.5,51.2z"/>
		<path d="M251.9,50.7c0,0.1-0.1,0.2-0.3,0.2c-0.1,3.8-0.4,7.2-2.5,9.7c-0.2-0.2-0.6-0.4-0.8-0.5c2.1-2.3,2.3-5.8,2.4-9.5
			L251.9,50.7z M255.5,58.8c2.3-1.1,3.9-3.2,4.7-5.6c0.2,0.2,0.6,0.4,0.9,0.5c-1,2.8-2.7,4.9-5.7,6.3c0,0.1-0.1,0.2-0.2,0.3
			l-0.7-0.9l0.2-0.2V48.9l1.3,0.1c0,0.1-0.1,0.2-0.3,0.3V58.8z"/>
		<path d="M265.3,49.2c0,0.2-0.2,0.2-0.5,0.2c-0.5,2.3-0.7,4.8-0.7,6.3c0,1.1,0,2.1,0.2,2.8c0.3-0.7,0.9-2.2,1.1-2.6l0.6,0.6
			c-0.6,1.4-1,2.2-1.2,2.8c-0.1,0.2-0.1,0.5-0.1,0.7c0,0.2,0,0.3,0.1,0.4l-1,0.2c-0.4-1.3-0.6-3-0.6-4.8c0-1.8,0.3-4.4,0.7-6.8
			L265.3,49.2z M274.2,59.4c-0.5,0-1,0-1.5,0c-1,0-1.9-0.1-2.6-0.2c-1.7-0.3-2.5-1.2-2.5-2.3c0-1,0.5-1.8,1.3-2.7l0.9,0.4
			c-0.7,0.7-1.2,1.4-1.2,2.2c0,1.6,2.4,1.6,3.8,1.6c0.6,0,1.2,0,1.8-0.1L274.2,59.4z M267.7,50.9c1.8,0,4.2-0.2,6.1-0.5l0.1,1
			c-1.7,0.3-4.6,0.5-6.2,0.5L267.7,50.9z"/>
		<path d="M282,55.7h-4.2c0,1.7-0.3,3.9-1.3,5.4c-0.1-0.2-0.5-0.5-0.7-0.6c1-1.5,1.1-3.7,1.1-5.4v-3.9h5.1V55.7z M282.5,48.9v0.9
			h-6.3v-0.9H282.5z M281.1,52.2h-3.3v2.6h3.3V52.2z M289.2,53v0.9h-1.7v7.3h-0.9v-7.3H284c-0.1,2.2-0.4,5.1-2.4,7.2
			c-0.1-0.2-0.5-0.5-0.7-0.6c2-2.1,2.2-4.9,2.2-7.1v-3.7l0.7,0.2c1.6-0.4,3.2-0.9,4.2-1.5l0.9,0.8c-0.1,0.1-0.2,0.1-0.3,0.1
			c-1.1,0.5-3,1.1-4.7,1.5V53H289.2z"/>
		<path d="M302,51.9h-9.6V53c0,2.4-0.2,5.8-1.7,8.2c-0.2-0.2-0.6-0.4-0.8-0.5c1.4-2.2,1.5-5.4,1.5-7.7v-4.1H302V51.9z M301.1,49.6
			h-8.6v1.5h8.6V49.6z M302.3,57.2v3.1c0,0.9-0.5,0.9-2.3,0.9c0-0.2-0.2-0.5-0.3-0.7c0.4,0,0.7,0,1,0c0.6,0,0.6,0,0.6-0.2v-2.4H298
			V59l1.5-0.1c-0.2-0.2-0.4-0.5-0.6-0.7l0.6-0.2c0.6,0.6,1.2,1.4,1.4,2l-0.6,0.3c-0.1-0.2-0.2-0.5-0.4-0.7c-1.9,0.1-3.8,0.2-5,0.3
			c0,0.1-0.1,0.2-0.2,0.2l-0.3-0.9c0.7,0,1.6,0,2.6-0.1v-1.2h-3.2v3.3H293v-4h4.1v-0.8h-3.5v-2.4h3.5v-0.8c-1.2,0.1-2.5,0.2-3.6,0.2
			c0-0.2-0.1-0.4-0.2-0.6c2.6-0.1,5.8-0.3,7.5-0.7l0.7,0.6c0,0-0.1,0-0.1,0c0,0-0.1,0-0.1,0c-0.8,0.2-2,0.3-3.2,0.4v0.9h3.6v2.4H298
			v0.8H302.3z M294.5,55.7h2.6v-1.2h-2.6V55.7z M300.7,54.6H298v1.2h2.7V54.6z"/>
		<path d="M308.3,49c1,1.3,2.1,3.3,2.1,6.5c0,3.1-1.1,5.1-2.1,6.5h-1c1.1-1.6,2-3.6,2-6.5c0-2.8-0.9-4.9-2-6.4H308.3z"/>
	</g>
	<circle class="st3" cx="180.5" cy="156.5" r="2.5"/>
	<circle class="st3" cx="142.5" cy="226.5" r="2.5"/>
	<circle class="st3" cx="228.5" cy="301.5" r="2.5"/>
	<circle class="st3" cx="122.5" cy="316.5" r="2.5"/>
	<circle class="st3" cx="257.5" cy="212.5" r="2.5"/>
	<polygon class="st4" points="180.5,159 255,212.5 228.5,299 122.5,316.5 142.5,229 	"/>
	<g>
		<path d="M16,197.7c-0.6,0-1.1-0.1-1.6-0.2c-0.5-0.2-0.9-0.4-1.2-0.6c-0.3-0.3-0.6-0.5-0.9-0.9l0.5-0.5c0.4,0.5,0.8,0.8,1.4,1.1
			c0.5,0.3,1.2,0.4,1.9,0.4c0.5,0,0.9-0.1,1.3-0.3c0.4-0.2,0.7-0.4,1-0.7c0.2-0.3,0.4-0.7,0.4-1.2c0-0.4-0.1-0.8-0.4-1.2
			c-0.3-0.3-0.7-0.6-1.2-0.8c-0.5-0.2-1.2-0.3-2.1-0.3v-0.7c0.8,0,1.4-0.1,1.9-0.3c0.5-0.2,0.9-0.5,1.1-0.8c0.2-0.3,0.4-0.7,0.4-1
			c0-0.6-0.2-1-0.6-1.4c-0.4-0.4-1-0.5-1.7-0.5c-0.6,0-1.1,0.1-1.6,0.3c-0.5,0.2-0.9,0.6-1.3,1l-0.5-0.5c0.5-0.5,1-0.8,1.5-1.1
			c0.6-0.3,1.2-0.4,1.9-0.4c0.6,0,1.2,0.1,1.7,0.3s0.8,0.5,1.1,0.9c0.3,0.4,0.4,0.8,0.4,1.3c0,0.6-0.2,1.2-0.6,1.6s-0.9,0.7-1.5,0.9
			v0.1c0.4,0.1,0.9,0.2,1.2,0.5c0.4,0.2,0.6,0.5,0.8,0.9c0.2,0.4,0.3,0.8,0.3,1.3c0,0.6-0.2,1.1-0.5,1.5c-0.3,0.4-0.7,0.8-1.2,1
			C17.2,197.6,16.6,197.7,16,197.7z"/>
		<path d="M24.5,197.5v-10.2h2.4c1.1,0,1.9,0.2,2.6,0.6c0.7,0.4,1.2,1,1.5,1.8c0.3,0.8,0.5,1.7,0.5,2.7c0,1-0.2,2-0.5,2.7
			c-0.3,0.8-0.8,1.4-1.5,1.8c-0.7,0.4-1.6,0.6-2.6,0.6H24.5z M25.3,196.8h1.5c0.9,0,1.6-0.2,2.2-0.6c0.6-0.4,1-0.9,1.3-1.6
			c0.3-0.7,0.4-1.4,0.4-2.3c0-0.9-0.1-1.7-0.4-2.3c-0.3-0.7-0.7-1.2-1.3-1.5c-0.6-0.4-1.3-0.5-2.2-0.5h-1.5V196.8z"/>
		<path d="M44.1,188.4c0,0.1-0.1,0.1-0.1,0.2c0,0.1,0,0.2-0.1,0.3c-0.1,0.4-0.2,0.8-0.3,1.3s-0.3,0.9-0.5,1.4
			c-0.2,0.5-0.4,0.9-0.6,1.4s-0.5,0.8-0.7,1.2c-0.4,0.5-0.9,1-1.4,1.5c-0.5,0.5-1.1,0.9-1.8,1.2c-0.7,0.4-1.4,0.7-2.3,1l-0.6-0.7
			c0.9-0.2,1.7-0.5,2.3-0.9c0.7-0.3,1.2-0.7,1.8-1.1c0.5-0.4,1-0.9,1.4-1.4c0.3-0.4,0.7-0.9,0.9-1.5c0.3-0.6,0.5-1.2,0.7-1.8
			s0.3-1.1,0.4-1.6c-0.1,0-0.4,0-0.8,0s-0.8,0-1.4,0c-0.5,0-1.1,0-1.7,0s-1.1,0-1.7,0c-0.5,0-1,0-1.3,0c-0.4,0-0.6,0-0.7,0
			c-0.2,0-0.5,0-0.7,0c-0.2,0-0.4,0-0.6,0V188c0.1,0,0.3,0,0.4,0c0.1,0,0.3,0,0.4,0s0.3,0,0.4,0c0.1,0,0.3,0,0.6,0
			c0.3,0,0.6,0,1.1,0s0.9,0,1.4,0c0.5,0,1,0,1.4,0c0.5,0,0.9,0,1.3,0s0.8,0,1,0c0.3,0,0.5,0,0.5,0c0.1,0,0.2,0,0.3,0
			c0.1,0,0.2,0,0.3,0L44.1,188.4z M43.2,187.6c0-0.3,0.1-0.5,0.2-0.8c0.1-0.2,0.3-0.4,0.5-0.5s0.5-0.2,0.8-0.2
			c0.3,0,0.5,0.1,0.8,0.2c0.2,0.1,0.4,0.3,0.5,0.5c0.1,0.2,0.2,0.5,0.2,0.8c0,0.3-0.1,0.5-0.2,0.8s-0.3,0.4-0.5,0.5
			c-0.2,0.1-0.5,0.2-0.8,0.2c-0.3,0-0.5-0.1-0.8-0.2s-0.4-0.3-0.5-0.5S43.2,187.9,43.2,187.6z M43.7,187.6c0,0.3,0.1,0.5,0.3,0.7
			s0.4,0.3,0.7,0.3c0.3,0,0.5-0.1,0.7-0.3s0.3-0.4,0.3-0.7c0-0.3-0.1-0.5-0.3-0.7c-0.2-0.2-0.4-0.3-0.7-0.3c-0.3,0-0.5,0.1-0.7,0.3
			C43.8,187.1,43.7,187.3,43.7,187.6z"/>
		<path d="M50.5,187.1c0,0.1,0,0.3,0,0.5s0,0.4,0,0.5c0,0,0,0.2,0,0.4s0,0.5,0,0.8c0,0.3,0,0.7,0,1c0,0.4,0,0.7,0,1s0,0.6,0,0.9
			c0,0.2,0,0.4,0,0.5c0,0.2,0,0.4,0,0.5c0,0.2,0,0.3,0,0.4h-0.8c0-0.1,0-0.2,0-0.4c0-0.2,0-0.4,0-0.6c0-0.1,0-0.2,0-0.5s0-0.5,0-0.9
			c0-0.3,0-0.7,0-1c0-0.4,0-0.7,0-1c0-0.3,0-0.6,0-0.8s0-0.4,0-0.4c0-0.1,0-0.3,0-0.5c0-0.2,0-0.4,0-0.5H50.5z M57,187
			c0,0.2,0,0.3,0,0.5s0,0.4,0,0.6c0,0.2,0,0.4,0,0.6s0,0.5,0,0.8s0,0.4,0,0.6c0,0.9,0,1.6-0.1,2.2c0,0.6-0.1,1.1-0.2,1.5
			s-0.3,0.8-0.4,1.1c-0.2,0.3-0.4,0.6-0.6,0.9c-0.3,0.4-0.6,0.7-1,1s-0.8,0.5-1.2,0.7c-0.4,0.2-0.8,0.3-1.1,0.4l-0.6-0.6
			c0.6-0.2,1.2-0.4,1.8-0.7c0.6-0.3,1.1-0.7,1.5-1.2c0.3-0.3,0.5-0.6,0.6-0.9c0.2-0.3,0.3-0.7,0.4-1.1c0.1-0.4,0.1-0.9,0.2-1.4
			s0-1.2,0-1.9c0-0.1,0-0.4,0-0.6s0-0.5,0-0.8s0-0.4,0-0.6c0-0.2,0-0.4,0-0.6s0-0.4,0-0.5H57z"/>
		<path d="M62.6,196.9c0.9-0.1,1.7-0.3,2.4-0.5c0.7-0.2,1.3-0.5,1.9-0.8c0.6-0.3,1.1-0.6,1.5-0.9c0.7-0.4,1.3-0.9,1.9-1.5
			c0.6-0.6,1.1-1.2,1.5-1.8c0.4-0.6,0.8-1.2,1-1.7l0.4,0.8c-0.3,0.5-0.7,1.1-1.1,1.7c-0.4,0.6-0.9,1.1-1.5,1.7
			c-0.6,0.5-1.2,1-1.9,1.5c-0.5,0.3-1,0.6-1.5,0.9c-0.6,0.3-1.2,0.6-1.9,0.8c-0.7,0.2-1.4,0.4-2.3,0.6L62.6,196.9z M63.5,187.5
			c0.3,0.2,0.5,0.4,0.9,0.6c0.3,0.2,0.7,0.5,1,0.8c0.3,0.3,0.7,0.5,1,0.8s0.5,0.5,0.7,0.7l-0.5,0.6c-0.2-0.2-0.4-0.4-0.7-0.7
			c-0.3-0.3-0.6-0.5-0.9-0.8c-0.3-0.3-0.7-0.5-1-0.8s-0.6-0.5-0.9-0.6L63.5,187.5z"/>
		<path d="M81.6,186.6c-0.1,0.1-0.2,0.3-0.3,0.5s-0.2,0.3-0.2,0.4c-0.3,0.5-0.6,1-1,1.6c-0.4,0.6-0.9,1.2-1.5,1.8
			c-0.6,0.6-1.3,1.2-2.1,1.7l-0.6-0.5c0.8-0.5,1.5-1,2.1-1.7c0.6-0.6,1.1-1.2,1.5-1.8c0.4-0.6,0.7-1.1,0.9-1.5
			c0.1-0.1,0.1-0.2,0.2-0.4c0.1-0.2,0.1-0.3,0.1-0.5L81.6,186.6z M86.4,188.5c0,0.1-0.1,0.2-0.1,0.3s-0.1,0.2-0.1,0.3
			c-0.1,0.5-0.3,1-0.6,1.6c-0.2,0.6-0.5,1.1-0.9,1.7c-0.3,0.6-0.7,1.1-1.1,1.6c-0.6,0.7-1.4,1.5-2.3,2.2c-0.9,0.7-2.1,1.3-3.4,1.8
			l-0.6-0.6c0.8-0.2,1.6-0.5,2.3-0.9c0.7-0.4,1.4-0.8,2-1.3s1.1-1,1.5-1.5c0.4-0.5,0.7-1,1.1-1.5s0.6-1.1,0.8-1.6
			c0.2-0.6,0.4-1.1,0.5-1.5H80l0.3-0.7H85c0.2,0,0.3,0,0.4,0c0.1,0,0.2,0,0.3-0.1L86.4,188.5z M80.1,191.2c0.5,0.3,0.9,0.5,1.4,0.9
			c0.5,0.3,1,0.6,1.4,1c0.5,0.3,0.9,0.7,1.4,1c0.4,0.3,0.8,0.6,1.2,0.9l-0.5,0.6c-0.3-0.3-0.7-0.6-1.1-0.9c-0.4-0.3-0.9-0.7-1.4-1
			c-0.5-0.3-1-0.7-1.5-1s-1-0.6-1.4-0.9L80.1,191.2z"/>
		<path d="M10.9,213.4l0.7,0.1c-0.2,0.6-0.4,1.1-0.6,1.6s-0.6,1-0.9,1.3c0,0-0.1-0.1-0.1-0.1c-0.1-0.1-0.1-0.1-0.2-0.1
			s-0.1-0.1-0.2-0.1c0.3-0.3,0.6-0.8,0.8-1.2C10.6,214.4,10.8,213.9,10.9,213.4z M10.2,204.4H14v8.7h-3.8V204.4z M10.8,204.9v2.1
			h2.5v-2.1H10.8z M10.8,207.6v2.1h2.5v-2.1H10.8z M10.8,210.3v2.1h2.5v-2.1H10.8z M12.8,213.7l0.5-0.3c0.2,0.3,0.4,0.7,0.7,1.1
			c0.2,0.4,0.4,0.7,0.5,1l-0.6,0.3c-0.1-0.2-0.2-0.4-0.3-0.7c-0.1-0.3-0.3-0.5-0.4-0.8C13,214.1,12.9,213.9,12.8,213.7z M14.2,213.6
			h8.2v0.6h-8.2V213.6z M14.3,208.4h8.1v0.6h-8.1V208.4z M14.6,205.1H22v0.6h-7.4V205.1z M15,206.7h6.7v0.6H15V206.7z M15.2,210h5.9
			v0.6h-5.2v6h-0.6V210z M15.6,211.8h5.5v0.5h-5.5V211.8z M16.4,203.8h0.6v4.8h-0.6V203.8z M18,208.7h0.6v5.2H18V208.7z M20.8,210
			h0.6v5.7c0,0.2,0,0.4-0.1,0.5c-0.1,0.1-0.2,0.2-0.3,0.3c-0.2,0.1-0.4,0.1-0.7,0.1c-0.3,0-0.8,0-1.3,0c0-0.1,0-0.2-0.1-0.3
			c0-0.1-0.1-0.2-0.1-0.3c0.4,0,0.8,0,1.1,0c0.3,0,0.5,0,0.6,0c0.1,0,0.2,0,0.2,0c0,0,0.1-0.1,0.1-0.2V210z M19.5,203.8h0.6v4.8
			h-0.6V203.8z"/>
		<path d="M29.5,207.3l0.8,0.1c-0.3,1.4-0.8,2.7-1.3,3.9c-0.5,1.1-1.2,2.1-2,3s-1.7,1.6-2.8,2.2c0,0-0.1-0.1-0.2-0.2
			c-0.1-0.1-0.2-0.1-0.2-0.2c-0.1-0.1-0.1-0.1-0.2-0.2c1.6-0.9,2.9-2,3.8-3.5C28.3,211.1,29,209.3,29.5,207.3z M26.2,204.7h4v0.7h-4
			V204.7z M29.8,204.7h0.7c0,0.4,0,0.9,0,1.4c0,0.6,0.1,1.2,0.2,1.8c0.1,0.6,0.3,1.3,0.6,2c0.3,0.7,0.6,1.4,1,2.1
			c0.4,0.7,1,1.4,1.7,2.1c0.7,0.7,1.5,1.3,2.4,1.8c-0.1,0-0.1,0.1-0.2,0.2c-0.1,0.1-0.1,0.1-0.2,0.2c-0.1,0.1-0.1,0.1-0.2,0.2
			c-1-0.6-1.8-1.2-2.5-1.9c-0.7-0.7-1.2-1.4-1.7-2.1s-0.8-1.5-1.1-2.2c-0.3-0.7-0.5-1.5-0.6-2.1c-0.1-0.7-0.2-1.3-0.3-1.9
			S29.8,205.1,29.8,204.7z"/>
		<path d="M39.9,207.2l0.5,0.2c-0.1,0.6-0.3,1.1-0.4,1.7c-0.2,0.6-0.4,1.2-0.6,1.8c-0.2,0.6-0.5,1.1-0.7,1.6
			c-0.2,0.5-0.5,0.9-0.7,1.3c0-0.1-0.1-0.2-0.2-0.3c-0.1-0.1-0.2-0.2-0.2-0.3c0.2-0.3,0.5-0.7,0.7-1.2c0.2-0.5,0.5-1,0.7-1.5
			c0.2-0.5,0.4-1.1,0.6-1.7C39.6,208.3,39.8,207.8,39.9,207.2z M37.8,206.9h4.4v0.6h-4.4V206.9z M39.9,203.8h0.6v12.7h-0.6V203.8z
			 M40.5,208.8c0.1,0.1,0.2,0.3,0.4,0.5s0.4,0.5,0.6,0.8c0.2,0.3,0.4,0.5,0.6,0.8c0.2,0.2,0.3,0.4,0.4,0.5l-0.4,0.5
			c-0.1-0.2-0.2-0.4-0.4-0.6c-0.2-0.3-0.3-0.5-0.5-0.8c-0.2-0.3-0.4-0.6-0.5-0.8c-0.2-0.2-0.3-0.4-0.4-0.5L40.5,208.8z M45.8,207.5
			h0.6v3.8c0,0.5-0.1,1-0.2,1.5s-0.3,1-0.6,1.4c-0.3,0.5-0.7,0.9-1.3,1.3c-0.6,0.4-1.3,0.8-2.3,1.1c0,0-0.1-0.1-0.1-0.2
			s-0.1-0.1-0.1-0.2s-0.1-0.1-0.1-0.1c0.9-0.3,1.6-0.6,2.2-1c0.6-0.4,1-0.8,1.3-1.2c0.3-0.4,0.5-0.9,0.6-1.3s0.1-0.9,0.1-1.3V207.5z
			 M46.2,204.5c-0.3,0.4-0.6,0.8-1,1.2c-0.4,0.4-0.9,0.8-1.4,1.2s-1,0.7-1.5,1c0-0.1-0.1-0.2-0.2-0.3c-0.1-0.1-0.1-0.2-0.2-0.3
			c0.5-0.3,1.1-0.6,1.6-1c0.5-0.4,1-0.8,1.4-1.2c0.4-0.4,0.7-0.9,1-1.3h0.6c0.3,0.5,0.7,0.9,1.2,1.4s0.9,0.8,1.4,1.2
			c0.5,0.4,1,0.6,1.5,0.9c-0.1,0.1-0.1,0.2-0.2,0.3c-0.1,0.1-0.1,0.2-0.2,0.3c-0.5-0.3-1-0.6-1.5-0.9s-1-0.8-1.4-1.2
			C46.9,205.3,46.5,204.9,46.2,204.5z M42.7,209.3h7v3.5h-7V209.3z M43.3,209.9v2.3h5.8v-2.3H43.3z M43.5,207.2H49v0.6h-5.5V207.2z
			 M46.6,212.4c0.3,0.7,0.6,1.3,0.9,1.7c0.4,0.5,0.8,0.8,1.3,1.1c0.5,0.3,1.1,0.5,1.7,0.8c-0.1,0.1-0.2,0.2-0.2,0.3
			c-0.1,0.1-0.1,0.2-0.2,0.3c-0.7-0.3-1.3-0.6-1.8-0.9s-1-0.8-1.3-1.3c-0.4-0.5-0.7-1.1-1-1.9L46.6,212.4z"/>
		<path d="M51.6,206.1H57v0.6h-5.4V206.1z M52.2,211.7h0.6v4.7h-0.6V211.7z M52.3,208h4.3v0.6h-4.3V208z M52.3,209.9h4.3v0.6h-4.3
			V209.9z M52.3,204.3h4.2v0.6h-4.2V204.3z M52.6,211.7h3.9v4h-3.9v-0.6h3.3v-2.8h-3.3V211.7z M57.3,207.2h7.1v0.6h-7.1V207.2z
			 M58.2,209.8l0.6-0.3c0.3,0.3,0.5,0.7,0.7,1.1s0.5,0.8,0.7,1.2c0.2,0.4,0.4,0.7,0.5,1l-0.6,0.3c-0.1-0.3-0.3-0.7-0.5-1
			c-0.2-0.4-0.4-0.8-0.7-1.2C58.6,210.5,58.4,210.1,58.2,209.8z M61.9,203.8h0.7v11.6c0,0.3,0,0.5-0.1,0.7c-0.1,0.1-0.2,0.2-0.4,0.3
			c-0.2,0.1-0.5,0.1-0.9,0.1c-0.4,0-0.9,0-1.5,0c0-0.1,0-0.1-0.1-0.2c0-0.1-0.1-0.2-0.1-0.3s-0.1-0.2-0.1-0.2c0.5,0,1,0,1.4,0
			s0.7,0,0.8,0c0.1,0,0.2,0,0.3-0.1c0,0,0.1-0.1,0.1-0.3V203.8z"/>
		<path d="M66.4,206.4h11.1v6.3h-0.7V207h-9.8v5.7h-0.7V206.4z M66.8,211.2h10.5v0.7H66.8V211.2z M71.6,203.8h0.7v12.7h-0.7V203.8z"
			/>
	</g>
	<g>
		<path d="M34,87.3l0.4,0.8l-9.1,4.6v0l9.1,4.6L34,98.2l-10.5-5.4v-0.1L34,87.3z"/>
		<path d="M41.4,89.1l0.5,0.1l-0.1,0.2c-0.2,2.5-0.6,4.5-1.3,6c0.7,0.5,1.3,1.1,1.7,1.5l-0.6,0.8c-0.4-0.4-0.9-1-1.5-1.5
			c-0.7,1.3-1.7,2.3-2.8,2.9c-0.1-0.2-0.4-0.6-0.6-0.8c1.1-0.6,1.9-1.5,2.6-2.7c-0.5-0.4-1.1-0.8-1.6-1.1l-0.2,0.6l-0.8-0.4
			c0.4-1.2,0.8-3,1.2-4.8h-1.4v-0.9h1.6c0.2-1.1,0.4-2.1,0.6-3l1.1,0.1c0,0.1-0.1,0.2-0.3,0.2c-0.2,0.8-0.4,1.7-0.6,2.6h2.2
			L41.4,89.1z M38.8,90c-0.3,1.3-0.6,2.6-0.9,3.8c0.6,0.3,1.2,0.7,1.8,1.1c0.6-1.3,1-2.9,1.2-4.9H38.8z M49.5,92.4v0.9h-3.4V98
			c0,1.1-0.4,1.2-2.9,1.2c-0.1-0.3-0.2-0.7-0.4-0.9c0.7,0,1.3,0,1.7,0c0.5,0,0.6,0,0.6-0.3v-4.7h-3.4v-0.9h3.4V90l0.5,0
			c0.7-0.6,1.5-1.5,2.1-2.3h-5.4v-0.9h6.1l0.2-0.1l0.7,0.5c0,0.1-0.1,0.1-0.2,0.1c-0.7,1-1.9,2.4-3,3.2v1.7H49.5z"/>
		<path d="M62.5,91.2c-1.3,0.4-2.8,0.7-4.2,0.9c0.4,0.8,1.3,1.8,2.3,2.2L60,95.1c-0.2-0.1-0.6-0.3-0.8-0.4c-0.3-0.1-1-0.2-1.7-0.2
			c-0.2,0-0.4,0-0.6,0l-0.2-0.8c0.5,0,1.2,0,1.6,0.1c-0.4-0.4-0.8-1-1.1-1.6c-0.9,0.1-2,0.1-3.8,0.1c-0.7,0-1.5,0-2.1,0l0-0.9
			c0.6,0,1.4,0,2.1,0c1.1,0,2.3,0,3.4-0.1c-0.2-0.4-0.4-1.2-0.5-1.9c-0.6,0.1-1.2,0.1-1.8,0.1c-0.8,0-1.7,0-2.4,0v-0.9
			c0.8,0,1.8,0,2.4,0c0.5,0,1.1,0,1.6-0.1c-0.1-0.6-0.3-1.4-0.4-2.2l1.4,0c0,0.2-0.1,0.3-0.4,0.3c0.1,0.6,0.2,1.2,0.3,1.8
			c1.3-0.1,2.7-0.4,3.8-0.8l0.2,0.9c-1,0.4-2.4,0.6-3.8,0.8c0.2,0.7,0.4,1.4,0.5,1.8c1.5-0.2,3.1-0.5,4.4-0.9L62.5,91.2z M60.1,98.6
			c-0.8,0.1-1.7,0.1-3.1,0.1c-2.3,0-4-0.7-4-2.3c0-0.8,0.7-1.7,1.7-2.2l0.6,0.6c-0.8,0.4-1.3,1-1.3,1.6c0,1,1.2,1.4,3,1.4
			c1.1,0,2.2-0.1,3.1-0.1L60.1,98.6z"/>
		<path d="M69.9,86.6c0,0.1-0.2,0.2-0.4,0.2c-0.1,0.6-0.2,1.3-0.4,1.9c1.4-0.1,2.9-0.3,4.1-0.7l0.2,1c-1.3,0.3-2.8,0.5-4.5,0.7
			c-0.7,2.7-1.6,4.9-3,6.9l-0.9-0.4c1.3-1.8,2.2-3.9,2.8-6.5h-2.8v-0.9h1.7c0.4,0,0.9,0,1.3,0c0.2-0.7,0.3-1.5,0.4-2.4L69.9,86.6z
			 M73.7,92.6c0,1.1,0.1,1.9,0.2,2.9c0.9,0.4,2.1,1,3,1.6l-0.5,0.9c-0.8-0.6-1.7-1.1-2.5-1.5c0,1.4-0.6,2.5-2.6,2.5
			c-1.6,0-2.7-0.7-2.7-2c0-1.4,1.5-2.1,2.8-2.1c0.5,0,1,0.1,1.6,0.3c-0.1-0.9-0.1-1.8-0.1-2.5L73.7,92.6z M72.9,96.1
			c-0.6-0.2-1.2-0.3-1.7-0.3c-0.8,0-1.8,0.3-1.8,1.2c0,0.8,0.8,1.2,1.9,1.2c1,0,1.7-0.5,1.7-1.4C72.9,96.5,72.9,96.3,72.9,96.1z
			 M76.7,91.1c-1.6,0-3.5,0.3-5,0.7l-0.2-0.9c1.6-0.5,3.5-0.8,5.1-0.8L76.7,91.1z"/>
		<path d="M89.7,97.7c-1.2,0.2-2.9,0.3-4.3,0.3c-1.2,0-2.2-0.1-2.7-0.2c-1.7-0.4-2.4-1.4-2.4-2.7c0-1.1,0.6-2.2,1.4-3l0.8,0.4
			c-0.8,0.8-1.2,1.7-1.2,2.5c0,0.8,0.5,1.6,1.8,1.8c0.5,0.1,1.3,0.2,2.3,0.2c1.4,0,3-0.1,4.3-0.4L89.7,97.7z M83.4,90.7
			c0.7-0.6,1.7-1.2,2.5-1.6v0c-1.1,0.1-3.5,0.2-5.1,0.2c0-0.3,0-0.7,0-1c0.3,0,5.7,0.1,8-0.4l0.1,1c-1.7,0.2-3.8,1.7-4.7,2.4
			L83.4,90.7z"/>
		<path d="M103.4,91.2c0,0-0.1,0-0.1,0c-0.1,0-0.2,0-0.3-0.1c-4.2,1.2-7.9,3.1-7.9,4.9c0,1.3,1.5,1.8,3.8,1.8c2.3,0,4-0.2,5-0.3
			l0.1,1c-1.3,0.2-3.4,0.3-5,0.3c-2.8,0-4.8-0.6-4.8-2.7c0-1.5,1.5-2.8,3.7-4c-0.5-0.9-0.6-2.5-0.6-5.6l1.5,0.1
			c0,0.2-0.2,0.3-0.4,0.3c0,2.5,0.1,4,0.5,4.7c1.3-0.6,2.8-1.2,4.4-1.7L103.4,91.2z"/>
		<path d="M108,87.3l10.5,5.4v0.1L108,98.2l-0.4-0.8l9.1-4.6v0l-9.1-4.6L108,87.3z"/>
	</g>
</g>
</svg>
